<svg width="28" height="26" viewBox="0 0 28 26" fill="none" xmlns="http://www.w3.org/2000/svg">
<path d="M26.8658 23.5005C24.9621 20.2092 22.0283 17.8492 18.6046 16.7305C20.2981 15.7223 21.6139 14.1861 22.3498 12.3577C23.0858 10.5294 23.2012 8.50997 22.6784 6.60967C22.1556 4.70936 21.0234 3.03321 19.4558 1.83863C17.8882 0.644041 15.9717 -0.00292969 14.0008 -0.00292969C12.0299 -0.00292969 10.1135 0.644041 8.54586 1.83863C6.97823 3.03321 5.84607 4.70936 5.32325 6.60967C4.80043 8.50997 4.91586 10.5294 5.65181 12.3577C6.38776 14.1861 7.70354 15.7223 9.39708 16.7305C5.97333 17.848 3.03958 20.208 1.13583 23.5005C1.06601 23.6143 1.01971 23.741 0.999638 23.873C0.97957 24.005 0.986147 24.1397 1.01898 24.2692C1.05182 24.3986 1.11024 24.5201 1.19082 24.6266C1.27139 24.7331 1.37247 24.8224 1.48811 24.8892C1.60374 24.956 1.73158 24.9989 1.86409 25.0155C1.99659 25.0321 2.13107 25.022 2.2596 24.9858C2.38813 24.9495 2.5081 24.8879 2.61244 24.8046C2.71677 24.7212 2.80335 24.6178 2.86708 24.5005C5.22208 20.4305 9.38458 18.0005 14.0008 18.0005C18.6171 18.0005 22.7796 20.4305 25.1346 24.5005C25.1983 24.6178 25.2849 24.7212 25.3892 24.8046C25.4936 24.8879 25.6135 24.9495 25.742 24.9858C25.8706 25.022 26.0051 25.0321 26.1376 25.0155C26.2701 24.9989 26.3979 24.956 26.5135 24.8892C26.6292 24.8224 26.7303 24.7331 26.8108 24.6266C26.8914 24.5201 26.9498 24.3986 26.9827 24.2692C27.0155 24.1397 27.0221 24.005 27.002 23.873C26.9819 23.741 26.9356 23.6143 26.8658 23.5005ZM7.00083 9.00047C7.00083 7.616 7.41137 6.26262 8.18054 5.11148C8.94971 3.96034 10.043 3.06313 11.322 2.53331C12.6011 2.0035 14.0086 1.86488 15.3665 2.13497C16.7243 2.40507 17.9716 3.07176 18.9506 4.05072C19.9295 5.02969 20.5962 6.27697 20.8663 7.63484C21.1364 8.99271 20.9978 10.4002 20.468 11.6793C19.9382 12.9583 19.041 14.0516 17.8898 14.8208C16.7387 15.5899 15.3853 16.0005 14.0008 16.0005C12.1449 15.9985 10.3656 15.2604 9.05327 13.948C7.74095 12.6357 7.00281 10.8564 7.00083 9.00047Z" fill="#F0F0F0"/>
</svg>
