<svg width="21" height="25" viewBox="0 0 21 25" fill="none" xmlns="http://www.w3.org/2000/svg">
<path d="M15.2729 0.611986C15.2219 0.554986 13.3844 0.634486 11.7854 2.36999C10.1864 4.10399 10.4324 6.09299 10.4684 6.14399C10.5044 6.19499 12.7484 6.27449 14.1809 4.25699C15.6134 2.23949 15.3239 0.670486 15.2729 0.611986ZM20.2439 18.2115C20.1719 18.0675 16.7564 16.3605 17.0744 13.0785C17.3924 9.79499 19.5869 8.89499 19.6214 8.79749C19.6559 8.69999 18.7259 7.61249 17.7404 7.06199C17.0168 6.67386 16.216 6.4515 15.3959 6.41099C15.2339 6.40649 14.6714 6.26849 13.5149 6.58499C12.7529 6.79349 11.0354 7.46849 10.5629 7.49549C10.0889 7.52249 8.67889 6.71249 7.16239 6.49799C6.19189 6.31049 5.16289 6.69449 4.42639 6.98999C3.69139 7.28399 2.29339 8.12099 1.31539 10.3455C0.337389 12.5685 0.848889 16.0905 1.21489 17.1855C1.58089 18.279 2.15239 20.0715 3.12439 21.3795C3.98839 22.8555 5.13439 23.88 5.61289 24.228C6.09139 24.576 7.44139 24.807 8.37739 24.3285C9.13039 23.8665 10.4894 23.601 11.0264 23.6205C11.5619 23.64 12.6179 23.8515 13.6994 24.429C14.5559 24.7245 15.3659 24.6015 16.1774 24.2715C16.9889 23.94 18.1634 22.683 19.5344 20.1345C20.0549 18.9495 20.2919 18.309 20.2439 18.2115Z" fill="black"/>
<path d="M15.2729 0.611986C15.2219 0.554986 13.3844 0.634486 11.7854 2.36999C10.1864 4.10399 10.4324 6.09299 10.4684 6.14399C10.5044 6.19499 12.7484 6.27449 14.1809 4.25699C15.6134 2.23949 15.3239 0.670486 15.2729 0.611986ZM20.2439 18.2115C20.1719 18.0675 16.7564 16.3605 17.0744 13.0785C17.3924 9.79499 19.5869 8.89499 19.6214 8.79749C19.6559 8.69999 18.7259 7.61249 17.7404 7.06199C17.0168 6.67386 16.216 6.4515 15.3959 6.41099C15.2339 6.40649 14.6714 6.26849 13.5149 6.58499C12.7529 6.79349 11.0354 7.46849 10.5629 7.49549C10.0889 7.52249 8.67889 6.71249 7.16239 6.49799C6.19189 6.31049 5.16289 6.69449 4.42639 6.98999C3.69139 7.28399 2.29339 8.12099 1.31539 10.3455C0.337389 12.5685 0.848889 16.0905 1.21489 17.1855C1.58089 18.279 2.15239 20.0715 3.12439 21.3795C3.98839 22.8555 5.13439 23.88 5.61289 24.228C6.09139 24.576 7.44139 24.807 8.37739 24.3285C9.13039 23.8665 10.4894 23.601 11.0264 23.6205C11.5619 23.64 12.6179 23.8515 13.6994 24.429C14.5559 24.7245 15.3659 24.6015 16.1774 24.2715C16.9889 23.94 18.1634 22.683 19.5344 20.1345C20.0549 18.9495 20.2919 18.309 20.2439 18.2115Z" fill="black"/>
</svg>
