<svg width="16" height="16" viewBox="0 0 16 16" fill="none" xmlns="http://www.w3.org/2000/svg">
<path fill-rule="evenodd" clip-rule="evenodd" d="M6.4012 10.091C6.2732 10.091 6.1452 10.0423 6.04787 9.94432C5.85253 9.74898 5.85253 9.43298 6.04787 9.23765L9.24253 6.04298C9.43787 5.84765 9.75387 5.84765 9.9492 6.04298C10.1445 6.23832 10.1445 6.55432 9.9492 6.74965L6.75453 9.94432C6.6572 10.0423 6.5292 10.091 6.4012 10.091Z" fill="url(#paint0_linear_2255_5856)"/>
<path fill-rule="evenodd" clip-rule="evenodd" d="M9.59756 10.0943C9.46956 10.0943 9.34156 10.0457 9.24422 9.94765L6.04689 6.74965C5.85156 6.55432 5.85156 6.23832 6.04689 6.04298C6.24289 5.84765 6.55889 5.84765 6.75356 6.04298L9.95089 9.24098C10.1462 9.43632 10.1462 9.75232 9.95089 9.94765C9.85356 10.0457 9.72489 10.0943 9.59756 10.0943Z" fill="url(#paint1_linear_2255_5856)"/>
<path fill-rule="evenodd" clip-rule="evenodd" d="M5.10967 2.33398C3.42301 2.33398 2.33301 3.48932 2.33301 5.27798V10.7233C2.33301 12.512 3.42301 13.6673 5.10967 13.6673H10.8883C12.5757 13.6673 13.6663 12.512 13.6663 10.7233V5.27798C13.6663 3.48932 12.5757 2.33398 10.889 2.33398H5.10967ZM10.8883 14.6673H5.10967C2.85034 14.6673 1.33301 13.082 1.33301 10.7233V5.27798C1.33301 2.91932 2.85034 1.33398 5.10967 1.33398H10.889C13.1483 1.33398 14.6663 2.91932 14.6663 5.27798V10.7233C14.6663 13.082 13.1483 14.6673 10.8883 14.6673Z" fill="url(#paint2_linear_2255_5856)"/>
<defs>
<linearGradient id="paint0_linear_2255_5856" x1="10.0957" y1="10.091" x2="5.10479" y2="8.64397" gradientUnits="userSpaceOnUse">
<stop stop-color="#FE4E6F"/>
<stop offset="1" stop-color="#FF4451"/>
</linearGradient>
<linearGradient id="paint1_linear_2255_5856" x1="10.0974" y1="10.0943" x2="5.10318" y2="8.64658" gradientUnits="userSpaceOnUse">
<stop stop-color="#FE4E6F"/>
<stop offset="1" stop-color="#FF4451"/>
</linearGradient>
<linearGradient id="paint2_linear_2255_5856" x1="14.6663" y1="14.6673" x2="-1.19913" y2="10.0673" gradientUnits="userSpaceOnUse">
<stop stop-color="#FE4E6F"/>
<stop offset="1" stop-color="#FF4451"/>
</linearGradient>
</defs>
</svg>
