<svg width="120" height="121" viewBox="0 0 120 121" fill="none" xmlns="http://www.w3.org/2000/svg">
<path d="M48.8918 16.7635C52.0021 11.3761 58.4578 9.12395 64.12 11.1164C66.9663 12.0658 69.49 14.02 71.1082 16.823L107.156 79.2588C113.011 89.4007 109.536 102.369 99.3943 108.224C97.366 109.395 94.7723 108.701 93.6012 106.672L59.9829 48.4435L26.3988 106.613C25.2278 108.641 22.6341 109.336 20.6057 108.165C10.4639 102.31 6.98896 89.3412 12.8444 79.1994L48.8918 16.7635Z" fill="url(#paint0_linear_1327_18903)"/>
<path d="M60.0423 108.788C67.0688 108.788 72.7649 103.092 72.7649 96.0655C72.7649 89.0391 67.0688 83.3429 60.0423 83.3429C53.0158 83.3429 47.3197 89.0391 47.3197 96.0655C47.3197 103.092 53.0158 108.788 60.0423 108.788Z" fill="url(#paint1_linear_1327_18903)"/>
<defs>
<linearGradient id="paint0_linear_1327_18903" x1="110" y1="108.793" x2="-8.688" y2="73.8189" gradientUnits="userSpaceOnUse">
<stop stop-color="#06C149"/>
<stop offset="1" stop-color="#1ADF61"/>
</linearGradient>
<linearGradient id="paint1_linear_1327_18903" x1="110" y1="108.793" x2="-8.688" y2="73.8189" gradientUnits="userSpaceOnUse">
<stop stop-color="#06C149"/>
<stop offset="1" stop-color="#1ADF61"/>
</linearGradient>
</defs>
</svg>
