<svg width="20" height="20" viewBox="0 0 20 20" fill="none" xmlns="http://www.w3.org/2000/svg">
<path d="M9.35874 6.0756V2.73475C9.35874 2.37952 9.64208 2.0835 10.0004 2.0835C10.3212 2.0835 10.5931 2.33224 10.6361 2.64731L10.6421 2.73475V6.0756L14.6253 6.07585C16.6087 6.07585 18.2381 7.69998 18.3296 9.7255L18.3337 9.90524V14.1047C18.3337 16.1444 16.7609 17.8187 14.807 17.9127L14.6337 17.9168H5.36699C3.38366 17.9168 1.76207 16.3008 1.67102 14.2679L1.66699 14.0874L1.66699 9.89663C1.66699 7.85691 3.23192 6.17451 5.18532 6.08003L5.35866 6.07585H9.35866V11.4112L8.02533 10.0343C7.77533 9.77616 7.36699 9.77616 7.11699 10.0343C6.99199 10.1634 6.93366 10.3355 6.93366 10.5076C6.93366 10.6384 6.97099 10.7747 7.04993 10.8901L7.11699 10.9723L9.54199 13.4851C9.65866 13.6141 9.82533 13.683 10.0003 13.683C10.1392 13.683 10.2781 13.6352 10.3881 13.5445L10.4503 13.4851L12.8753 10.9723C13.1253 10.7141 13.1253 10.2925 12.8753 10.0343C12.6481 9.79963 12.2899 9.77829 12.0389 9.97031L11.967 10.0343L10.642 11.4112V6.07585L9.35874 6.0756Z" fill="#06C149"/>
</svg>
