<svg width="50" height="50" viewBox="0 0 50 50" fill="none" xmlns="http://www.w3.org/2000/svg">
<path d="M25 42C15.6 42 8 34.4 8 25C8 15.6 15.6 8 25 8C34.4 8 42 15.6 42 25C42 34.4 34.4 42 25 42ZM25 10C16.7 10 10 16.7 10 25C10 33.3 16.7 40 25 40C33.3 40 40 33.3 40 25C40 16.7 33.3 10 25 10Z" fill="#9E9E9E"/>
<path d="M25.2996 34.7008L15.5996 25.0008L25.2996 15.3008L26.6996 16.7008L18.3996 25.0008L26.6996 33.3008L25.2996 34.7008Z" fill="#9E9E9E"/>
<path d="M17 24H34V26H17V24Z" fill="#9E9E9E"/>
</svg>
