<svg width="20" height="20" viewBox="0 0 20 20" fill="none" xmlns="http://www.w3.org/2000/svg">
<path fill-rule="evenodd" clip-rule="evenodd" d="M8.16923 12.7105C8.68962 13.0633 9.32385 13.2766 9.99874 13.2766C11.7876 13.2766 13.2431 11.808 13.2431 10.0031C13.2431 9.32215 13.0317 8.68222 12.682 8.15714L11.7957 9.05141C11.9421 9.33035 12.0234 9.65852 12.0234 10.0031C12.0234 11.1271 11.1127 12.046 9.99874 12.046C9.65723 12.046 9.33198 11.9639 9.05553 11.8162L8.16923 12.7105ZM15.3572 5.45795C16.5362 6.54091 17.5363 8.00126 18.2844 9.75697C18.3494 9.91285 18.3494 10.0933 18.2844 10.241C16.5443 14.3267 13.4463 16.7716 9.99874 16.7716H9.99061C8.4213 16.7716 6.91703 16.2547 5.59165 15.3112L4.01421 16.9029C3.89224 17.0259 3.73775 17.0834 3.58326 17.0834C3.42877 17.0834 3.26615 17.0259 3.15231 16.9029C2.94903 16.6978 2.91651 16.3696 3.07913 16.1317L3.10352 16.0988L15.1295 3.96478L15.1295 3.96477C15.1458 3.94837 15.162 3.93196 15.1702 3.91555L15.1702 3.91555C15.1864 3.89914 15.2027 3.88273 15.2108 3.86633L15.9751 3.09513C16.2191 2.85721 16.6012 2.85721 16.837 3.09513C17.081 3.33305 17.081 3.72686 16.837 3.96478L15.3572 5.45795ZM6.74847 10.0063C6.74847 10.2196 6.77287 10.4329 6.80539 10.6298L3.79687 13.6654C2.98375 12.7137 2.27634 11.5651 1.71529 10.2442C1.65024 10.0965 1.65024 9.91605 1.71529 9.76017C3.45536 5.67446 6.55333 3.2378 9.9928 3.2378H10.0009C11.1637 3.2378 12.2939 3.51674 13.3347 4.04182L10.6189 6.78203C10.4238 6.74921 10.2123 6.7246 10.0009 6.7246C8.20395 6.7246 6.74847 8.19316 6.74847 10.0063Z" fill="#212121"/>
</svg>
