<svg width="24" height="25" viewBox="0 0 24 25" fill="none" xmlns="http://www.w3.org/2000/svg">
<path d="M24 12.0001V24.0001C24 24.2653 23.8946 24.5196 23.7071 24.7072C23.5196 24.8947 23.2652 25.0001 23 25.0001H16C15.7348 25.0001 15.4804 24.8947 15.2929 24.7072C15.1054 24.5196 15 24.2653 15 24.0001V17.5001C15 17.3674 14.9473 17.2403 14.8536 17.1465C14.7598 17.0527 14.6326 17.0001 14.5 17.0001H9.5C9.36739 17.0001 9.24021 17.0527 9.14645 17.1465C9.05268 17.2403 9 17.3674 9 17.5001V24.0001C9 24.2653 8.89464 24.5196 8.70711 24.7072C8.51957 24.8947 8.26522 25.0001 8 25.0001H1C0.734784 25.0001 0.48043 24.8947 0.292893 24.7072C0.105357 24.5196 0 24.2653 0 24.0001V12.0001C0.000245862 11.4697 0.211121 10.9612 0.58625 10.5863L10.5863 0.5863C10.9613 0.21151 11.4698 0.000976562 12 0.000976562C12.5302 0.000976562 13.0387 0.21151 13.4137 0.5863L23.4137 10.5863C23.7889 10.9612 23.9998 11.4697 24 12.0001Z" fill="white"/>
</svg>
