<svg width="25" height="24" viewBox="0 0 25 24" fill="none" xmlns="http://www.w3.org/2000/svg">
<path d="M2.39941 20V9C2.39941 8.46957 2.61013 7.96086 2.9852 7.58579C3.36027 7.21071 3.86898 7 4.39941 7H20.3994C20.9298 7 21.4386 7.21071 21.8136 7.58579C22.1887 7.96086 22.3994 8.46957 22.3994 9V20C22.3994 20.5304 22.1887 21.0391 21.8136 21.4142C21.4386 21.7893 20.9298 22 20.3994 22H4.39941C3.86898 22 3.36027 21.7893 2.9852 21.4142C2.61013 21.0391 2.39941 20.5304 2.39941 20Z" stroke="#9E9E9E" stroke-width="1.5"/>
<path d="M8.89941 2.5L12.3994 6L15.8994 2.5" stroke="#9E9E9E" stroke-width="1.5" stroke-linecap="round" stroke-linejoin="round"/>
</svg>
