<svg width="226" height="220" viewBox="0 0 226 220" fill="none" xmlns="http://www.w3.org/2000/svg">
<g clip-path="url(#clip0_2191_27176)">
<path d="M143.338 49.4778H82.7108C81.3292 49.4795 80.0046 50.03 79.0277 51.0086C78.0508 51.9872 77.5012 53.314 77.4995 54.6979V189.672L76.8047 189.884L61.9317 194.447C61.2268 194.662 60.4655 194.588 59.8148 194.242C59.1641 193.895 58.6773 193.304 58.4611 192.599L14.2209 47.8457C14.0056 47.1396 14.079 46.3768 14.4249 45.7249C14.7708 45.073 15.361 44.5854 16.0657 44.3691L38.9849 37.3394L105.428 16.9672L128.347 9.93746C128.696 9.82993 129.063 9.79236 129.426 9.82688C129.789 9.86141 130.142 9.96737 130.465 10.1387C130.787 10.31 131.073 10.5433 131.305 10.8253C131.537 11.1072 131.712 11.4323 131.818 11.7819L143.127 48.7818L143.338 49.4778Z" fill="#35383F"/>
<path d="M156.569 48.7804L142.94 4.18696C142.713 3.44395 142.342 2.75298 141.849 2.15353C141.355 1.55408 140.749 1.05791 140.064 0.693358C139.379 0.328808 138.629 0.103023 137.857 0.0289159C137.085 -0.0451914 136.306 0.0338304 135.564 0.261458L103.341 10.1413L36.9011 30.5171L4.67813 40.4004C3.18122 40.8609 1.92784 41.8974 1.1931 43.2826C0.45836 44.6677 0.302292 46.2883 0.759157 47.7886L47.3409 200.191C47.712 201.402 48.4609 202.462 49.4776 203.215C50.4943 203.969 51.7253 204.376 52.99 204.377C53.5753 204.377 54.1574 204.289 54.7166 204.116L76.8054 197.344L77.5002 197.128V196.401L76.8054 196.613L54.5116 203.451C53.1903 203.855 51.7632 203.717 50.5434 203.068C49.3235 202.419 48.4104 201.311 48.0045 199.989L1.42634 47.5833C1.22522 46.9279 1.15512 46.2393 1.22006 45.5568C1.285 44.8743 1.4837 44.2113 1.80479 43.6059C2.12588 43.0004 2.56306 42.4643 3.09127 42.0284C3.61948 41.5924 4.22836 41.265 4.88304 41.0651L37.106 31.1818L103.546 10.8095L135.769 0.926155C136.266 0.774355 136.782 0.696955 137.301 0.69647C138.415 0.698976 139.499 1.0588 140.395 1.72323C141.29 2.38767 141.949 3.3218 142.276 4.38881L155.843 48.7804L156.058 49.4764H156.781L156.569 48.7804Z" fill="#35383F"/>
<path d="M43.1212 44.482C42.4516 44.4815 41.7998 44.2661 41.2614 43.8673C40.7229 43.4685 40.3262 42.9074 40.1295 42.2663L35.6546 27.6251C35.5344 27.2318 35.4927 26.8186 35.5318 26.4092C35.571 25.9998 35.6903 25.6021 35.883 25.2388C36.0756 24.8756 36.3378 24.5539 36.6546 24.2922C36.9714 24.0304 37.3365 23.8338 37.7291 23.7134L98.8534 4.96854C99.6463 4.72616 100.503 4.80883 101.235 5.19838C101.967 5.58794 102.515 6.25256 102.759 7.04638L107.233 21.6878C107.475 22.482 107.393 23.34 107.004 24.0733C106.615 24.8067 105.952 25.3556 105.159 25.5996L44.0347 44.3445C43.7387 44.4355 43.4308 44.4818 43.1212 44.482Z" fill="url(#paint0_linear_2191_27176)"/>
<path d="M66.5636 15.6448C70.401 15.6448 73.5119 12.5287 73.5119 8.68472C73.5119 4.84076 70.401 1.72461 66.5636 1.72461C62.7261 1.72461 59.6152 4.84076 59.6152 8.68472C59.6152 12.5287 62.7261 15.6448 66.5636 15.6448Z" fill="url(#paint1_linear_2191_27176)"/>
<path d="M66.562 13.0921C68.992 13.0921 70.9619 11.1188 70.9619 8.6847C70.9619 6.25059 68.992 4.27734 66.562 4.27734C64.132 4.27734 62.1621 6.25059 62.1621 8.6847C62.1621 11.1188 64.132 13.0921 66.562 13.0921Z" fill="#1F222A"/>
<path d="M209.866 202.601H92.4394C91.6565 202.6 90.9059 202.288 90.3522 201.733C89.7986 201.179 89.4872 200.427 89.4863 199.642V58.7002C89.4872 57.916 89.7986 57.1641 90.3522 56.6095C90.9058 56.055 91.6564 55.7431 92.4394 55.7422H209.866C210.649 55.7431 211.4 56.055 211.954 56.6096C212.507 57.1641 212.819 57.916 212.819 58.7002V199.642C212.819 200.427 212.507 201.179 211.953 201.733C211.4 202.288 210.649 202.6 209.866 202.601Z" fill="#35383F"/>
<path d="M155.842 48.7812H82.7108C81.1451 48.7835 79.6441 49.4075 78.537 50.5165C77.4299 51.6255 76.8069 53.129 76.8047 54.6973V196.614L77.4995 196.402V54.6973C77.5012 53.3134 78.0508 51.9866 79.0277 51.008C80.0047 50.0295 81.3292 49.4789 82.7108 49.4773H156.058L155.842 48.7812ZM219.593 48.7812H82.7108C81.1451 48.7835 79.6441 49.4075 78.537 50.5165C77.4299 51.6255 76.8069 53.129 76.8047 54.6973V214.084C76.8069 215.652 77.4299 217.156 78.537 218.265C79.6441 219.374 81.1451 219.998 82.7108 220H219.593C221.159 219.998 222.66 219.374 223.767 218.265C224.874 217.156 225.497 215.652 225.499 214.084V54.6973C225.497 53.129 224.874 51.6255 223.767 50.5165C222.66 49.4075 221.159 48.7835 219.593 48.7812ZM224.804 214.084C224.803 215.468 224.253 216.795 223.276 217.773C222.299 218.752 220.975 219.302 219.593 219.304H82.7108C81.3292 219.302 80.0047 218.752 79.0277 217.773C78.0508 216.795 77.5012 215.468 77.4995 214.084V54.6973C77.5012 53.3134 78.0508 51.9866 79.0277 51.008C80.0047 50.0295 81.3292 49.4789 82.7108 49.4773H219.593C220.975 49.4789 222.299 50.0295 223.276 51.008C224.253 51.9866 224.803 53.3134 224.804 54.6973V214.084Z" fill="#35383F"/>
<path d="M183.116 64.0939H119.191C118.362 64.093 117.567 63.7627 116.981 63.1755C116.395 62.5884 116.065 61.7923 116.064 60.9619V45.6496C116.065 44.8192 116.395 44.0231 116.981 43.436C117.567 42.8488 118.362 42.5185 119.191 42.5176H183.116C183.945 42.5185 184.74 42.8488 185.326 43.436C185.912 44.0231 186.242 44.8192 186.243 45.6496V60.9619C186.242 61.7923 185.912 62.5884 185.326 63.1755C184.74 63.7627 183.945 64.093 183.116 64.0939Z" fill="url(#paint2_linear_2191_27176)"/>
<path d="M151.153 43.5608C154.991 43.5608 158.102 40.4447 158.102 36.6007C158.102 32.7568 154.991 29.6406 151.153 29.6406C147.316 29.6406 144.205 32.7568 144.205 36.6007C144.205 40.4447 147.316 43.5608 151.153 43.5608Z" fill="url(#paint3_linear_2191_27176)"/>
<path d="M151.152 40.84C153.489 40.84 155.384 38.942 155.384 36.6007C155.384 34.2594 153.489 32.3613 151.152 32.3613C148.815 32.3613 146.92 34.2594 146.92 36.6007C146.92 38.942 148.815 40.84 151.152 40.84Z" fill="#1F222A"/>
</g>
<defs>
<linearGradient id="paint0_linear_2191_27176" x1="107.37" y1="44.482" x2="34.7363" y2="6.31901" gradientUnits="userSpaceOnUse">
<stop stop-color="#FE4E6F"/>
<stop offset="1" stop-color="#FF4451"/>
</linearGradient>
<linearGradient id="paint1_linear_2191_27176" x1="73.5119" y1="15.6448" x2="56.9718" y2="10.8573" gradientUnits="userSpaceOnUse">
<stop stop-color="#FE4E6F"/>
<stop offset="1" stop-color="#FF4451"/>
</linearGradient>
<linearGradient id="paint2_linear_2191_27176" x1="186.243" y1="64.0939" x2="138.329" y2="18.9087" gradientUnits="userSpaceOnUse">
<stop stop-color="#FE4E6F"/>
<stop offset="1" stop-color="#FF4451"/>
</linearGradient>
<linearGradient id="paint3_linear_2191_27176" x1="158.102" y1="43.5608" x2="141.562" y2="38.7733" gradientUnits="userSpaceOnUse">
<stop stop-color="#FE4E6F"/>
<stop offset="1" stop-color="#FF4451"/>
</linearGradient>
<clipPath id="clip0_2191_27176">
<rect width="225" height="220" fill="white" transform="translate(0.5)"/>
</clipPath>
</defs>
</svg>
