<svg width="29" height="22" viewBox="0 0 29 22" fill="none" xmlns="http://www.w3.org/2000/svg">
<path fill-rule="evenodd" clip-rule="evenodd" d="M20.2289 15.7181C20.3367 18.1608 18.3652 20.2265 15.8258 20.3303C15.6388 20.3382 6.52009 20.3198 6.52009 20.3198C3.99296 20.5116 1.78121 18.6956 1.58188 16.2621C1.56686 16.0807 1.57095 6.29658 1.57095 6.29658C1.459 3.8512 3.42773 1.78031 5.96852 1.67256C6.15829 1.66336 15.2647 1.68044 15.2647 1.68044C17.8041 1.49123 20.0227 3.32034 20.2193 5.76572C20.2329 5.9418 20.2289 15.7181 20.2289 15.7181Z" stroke="#F0F0F0" stroke-width="1.5" stroke-linecap="round" stroke-linejoin="round"/>
<path d="M20.2324 8.3071L24.6231 4.71377C25.7111 3.8231 27.3431 4.5991 27.3418 6.0031L27.3258 15.8018C27.3244 17.2058 25.6911 17.9751 24.6058 17.0844L20.2324 13.4911" stroke="#F0F0F0" stroke-width="1.5" stroke-linecap="round" stroke-linejoin="round"/>
</svg>
