<svg width="20" height="20" viewBox="0 0 20 20" fill="none" xmlns="http://www.w3.org/2000/svg">
<path fill-rule="evenodd" clip-rule="evenodd" d="M14.6021 6.16336V7.44114C16.0374 7.88915 17.0832 9.18847 17.0832 10.7404V14.8544C17.0832 16.7757 15.4904 18.3334 13.5267 18.3334H6.47384C4.5093 18.3334 2.9165 16.7757 2.9165 14.8544V10.7404C2.9165 9.18847 3.96313 7.88915 5.39758 7.44114V6.16336C5.40604 3.67901 7.46373 1.66669 9.98714 1.66669C12.5444 1.66669 14.6021 3.67901 14.6021 6.16336ZM10.0041 3.11589C11.723 3.11589 13.1202 4.48228 13.1202 6.16336V7.26144H6.87944V6.1468C6.88791 4.474 8.2851 3.11589 10.0041 3.11589ZM10.7408 13.7125C10.7408 14.1182 10.4105 14.4412 9.9956 14.4412C9.58915 14.4412 9.2589 14.1182 9.2589 13.7125V11.874C9.2589 11.4766 9.58915 11.1536 9.9956 11.1536C10.4105 11.1536 10.7408 11.4766 10.7408 11.874V13.7125Z" fill="#212121"/>
</svg>
