<svg width="25" height="24" viewBox="0 0 25 24" fill="none" xmlns="http://www.w3.org/2000/svg">
<path d="M14.3496 2.25V21.75M10.8496 12H14.3496M5.84961 21.75H19.3496C19.6148 21.75 19.8692 21.6446 20.0567 21.4571C20.2443 21.2696 20.3496 21.0152 20.3496 20.75V3.25C20.3496 2.98478 20.2443 2.73043 20.0567 2.54289C19.8692 2.35536 19.6148 2.25 19.3496 2.25H5.84961C5.58439 2.25 5.33004 2.35536 5.1425 2.54289C4.95497 2.73043 4.84961 2.98478 4.84961 3.25V20.75C4.84961 21.0152 4.95497 21.2696 5.1425 21.4571C5.33004 21.6446 5.58439 21.75 5.84961 21.75Z" stroke="#9E9E9E" stroke-linecap="round" stroke-linejoin="round"/>
<path d="M8.59961 13C9.15189 13 9.59961 12.5523 9.59961 12C9.59961 11.4477 9.15189 11 8.59961 11C8.04732 11 7.59961 11.4477 7.59961 12C7.59961 12.5523 8.04732 13 8.59961 13Z" stroke="#9E9E9E" stroke-linecap="round" stroke-linejoin="round"/>
<path d="M10.8496 7H14.3496" stroke="#9E9E9E" stroke-linecap="round" stroke-linejoin="round"/>
<path d="M8.59961 8C9.15189 8 9.59961 7.55228 9.59961 7C9.59961 6.44772 9.15189 6 8.59961 6C8.04732 6 7.59961 6.44772 7.59961 7C7.59961 7.55228 8.04732 8 8.59961 8Z" stroke="#9E9E9E" stroke-linecap="round" stroke-linejoin="round"/>
<path d="M10.8496 17H14.3496" stroke="#9E9E9E" stroke-linecap="round" stroke-linejoin="round"/>
<path d="M8.59961 18C9.15189 18 9.59961 17.5523 9.59961 17C9.59961 16.4477 9.15189 16 8.59961 16C8.04732 16 7.59961 16.4477 7.59961 17C7.59961 17.5523 8.04732 18 8.59961 18Z" stroke="#9E9E9E" stroke-linecap="round" stroke-linejoin="round"/>
</svg>
