<svg width="300" height="199" viewBox="0 0 300 199" fill="none" xmlns="http://www.w3.org/2000/svg">
<g clip-path="url(#clip0_2211_11176)">
<path d="M151.977 55.9307C149.302 51.5111 146.132 46.7924 141.168 45.3493C135.419 43.6781 129.514 46.998 124.505 50.274C109.525 60.0717 95.0989 70.6896 81.293 82.079L81.3081 82.2506C92.0566 81.5101 102.805 80.7696 113.554 80.0292C121.319 79.4942 129.352 78.8854 136.215 75.2155C138.819 73.823 141.357 71.9628 144.308 71.8331C147.975 71.6721 151.172 74.23 153.684 76.9024C168.545 92.7106 172.845 116.885 189.517 130.774C179.004 104.874 166.451 79.8477 151.977 55.9307Z" fill="#1F222A"/>
<path d="M243.325 190.013C241.681 187.94 241.01 187.455 239.389 185.363C226.19 168.31 213.784 150.68 202.171 132.475C194.283 120.111 186.786 107.509 179.68 94.67C176.297 88.5661 173.007 82.4143 169.81 76.2146C167.329 71.4075 164.903 66.5716 162.532 61.707C161.854 60.3176 161.196 58.9218 160.54 57.5228C158.996 54.2329 157.48 50.927 155.853 47.6818C153.999 43.9831 151.741 40.1054 148.336 37.6205C146.786 36.4431 144.933 35.7308 142.993 35.5667C140.221 35.3878 137.663 36.5313 135.258 37.7802C117.666 46.944 101.196 58.4331 86.2997 71.5065C71.3648 84.6093 58.0155 99.4122 46.5238 115.614C46.1722 116.115 45.3408 115.636 45.6957 115.131C47.093 113.157 48.518 111.205 49.9707 109.273C68.0338 85.2749 90.1818 64.6376 115.402 48.3047C119.646 45.5577 123.968 42.9397 128.371 40.4504C130.59 39.1951 132.819 37.9558 135.086 36.7932C137.308 35.6529 139.668 34.6276 142.206 34.5893C150.846 34.4551 155.319 44.229 158.392 50.8056C159.357 52.8754 160.335 54.9388 161.324 56.9958C165.061 64.8053 168.943 72.5435 172.969 80.2104C175.453 84.944 177.992 89.65 180.585 94.3282C188.655 108.896 197.233 123.17 206.318 137.148C218.353 155.664 230.292 172.021 244.002 189.336C244.38 189.815 243.705 190.499 243.325 190.013Z" fill="#9E9E9E"/>
<path d="M85.4462 66.6809C84.9443 66.122 84.4455 65.563 83.9403 65.004C79.9563 60.6026 75.6815 56.2522 70.2106 53.7289C67.602 52.4878 64.7544 51.8284 61.8653 51.7965C58.879 51.8061 55.9598 52.5886 53.2005 53.6842C51.8959 54.2048 50.62 54.7957 49.3636 55.4249C47.9278 56.1468 46.5177 56.9166 45.1142 57.6928C42.4794 59.1493 39.8789 60.6696 37.3125 62.2539C32.2062 65.4065 27.2598 68.7996 22.4733 72.4334C19.992 74.318 17.5619 76.2642 15.1831 78.2723C12.9705 80.1376 10.8027 82.053 8.67961 84.0184C8.2256 84.4368 7.54771 83.7597 8.00171 83.3413C8.56126 82.8206 9.12721 82.3032 9.69316 81.7921C11.2919 80.3484 12.9162 78.9324 14.5661 77.544C17.5748 75.0079 20.6613 72.5697 23.8258 70.2295C28.7466 66.5883 33.8369 63.194 39.0966 60.0468C41.7249 58.4753 44.3894 56.9698 47.0901 55.5304C47.9055 55.096 48.7305 54.6712 49.565 54.2687C51.4585 53.3146 53.4259 52.5145 55.4482 51.8763C58.3128 50.9506 61.3436 50.6532 64.3338 51.0043C67.2209 51.4239 70.0025 52.3851 72.532 53.8375C77.9036 56.8367 82.0697 61.4745 86.1241 66.0006C86.5335 66.4605 85.8587 67.1408 85.4462 66.6809Z" fill="#9E9E9E"/>
<path d="M195.509 112.292L208.381 107.589L214.772 105.254C216.853 104.493 218.929 103.627 221.081 103.083C222.951 102.549 224.936 102.575 226.792 103.156C228.447 103.767 229.961 104.705 231.246 105.914C232.559 107.121 233.78 108.424 234.9 109.811C236.291 111.482 237.662 113.17 239.039 114.852C244.722 121.795 250.368 128.768 255.977 135.772C261.586 142.775 267.157 149.808 272.691 156.871C278.238 163.951 283.747 171.06 289.218 178.2C289.888 179.074 290.558 179.949 291.227 180.825C291.596 181.308 292.43 180.832 292.055 180.341C286.544 173.13 280.994 165.949 275.406 158.797C269.804 151.627 264.163 144.489 258.484 137.381C252.805 130.272 247.087 123.195 241.331 116.149C239.897 114.393 238.461 112.64 237.022 110.888C235.809 109.41 234.609 107.917 233.278 106.542C230.834 104.017 227.782 101.786 224.128 101.726C221.979 101.69 219.9 102.371 217.904 103.093C215.752 103.87 213.605 104.663 211.456 105.448L198.494 110.184L195.254 111.368C194.679 111.578 194.927 112.504 195.509 112.292L195.509 112.292Z" fill="#9E9E9E"/>
<path d="M68.5167 59.2656C61.9756 55.9073 53.5987 56.565 47.5879 60.7607C59.0531 62.7367 70.3929 65.3806 81.5492 68.6789C76.9164 65.9668 73.2925 61.7176 68.5167 59.2656Z" fill="#1F222A"/>
<path d="M47.5229 60.75L46.2637 61.7725C46.6896 61.4146 47.1324 61.0791 47.5873 60.7616C47.5658 60.7579 47.5444 60.7537 47.5229 60.75Z" fill="#1F222A"/>
<path d="M230.761 112.338C229.494 110.798 228.124 109.184 226.228 108.559L224.459 108.628C237.928 132.404 256.12 153.179 277.916 169.679C262.198 150.565 246.479 131.452 230.761 112.338Z" fill="#1F222A"/>
<path d="M120.731 99.627C121.55 102.599 123.395 105.185 125.939 106.929C126.922 107.598 128.086 108.24 128.423 109.38C128.6 110.107 128.491 110.874 128.118 111.523C127.746 112.164 127.293 112.754 126.771 113.28L126.724 113.458C124.283 112.013 121.96 110.185 120.612 107.691C119.264 105.197 119.075 101.929 120.731 99.627" fill="#1F222A"/>
<path d="M201.999 170.357C202.817 173.329 204.662 175.916 207.206 177.66C208.19 178.329 209.354 178.971 209.69 180.111C209.867 180.838 209.758 181.605 209.386 182.254C209.014 182.894 208.561 183.485 208.039 184.01L207.991 184.189C205.55 182.744 203.228 180.916 201.88 178.422C200.531 175.928 200.343 172.659 201.999 170.357" fill="#1F222A"/>
<path d="M39.8131 165.479C40.6319 168.45 42.4766 171.037 45.0208 172.781C46.0044 173.45 47.1682 174.092 47.5047 175.232C47.6817 175.959 47.5726 176.726 47.2 177.375C46.828 178.015 46.3754 178.606 45.8532 179.131L45.8056 179.31C43.3646 177.865 41.0424 176.037 39.6941 173.543C38.3457 171.049 38.1575 167.78 39.8131 165.479" fill="#1F222A"/>
<path d="M226.448 35.5389C236.272 35.5389 244.236 27.5833 244.236 17.7695C244.236 7.95566 236.272 0 226.448 0C216.624 0 208.66 7.95566 208.66 17.7695C208.66 27.5833 216.624 35.5389 226.448 35.5389Z" fill="url(#paint0_linear_2211_11176)"/>
<path d="M258.548 4.13577C249.927 2.97172 240.085 7.62649 237.85 16.0251C237.287 14.5318 236.264 13.256 234.927 12.382C233.591 11.508 232.011 11.0811 230.415 11.1629C228.82 11.2446 227.292 11.8309 226.052 12.837C224.812 13.8431 223.925 15.2168 223.518 16.7598L224.505 17.466C242.979 21.4569 262.102 21.3705 280.54 17.2129C274.543 10.9173 267.168 5.2998 258.548 4.13577Z" fill="#1F222A"/>
<path d="M221.577 27.8291C212.956 26.6651 203.114 31.3198 200.88 39.7185C200.317 38.2252 199.293 36.9494 197.956 36.0754C196.62 35.2014 195.04 34.7744 193.445 34.8562C191.849 34.938 190.321 35.5243 189.081 36.5303C187.842 37.5364 186.954 38.9102 186.547 40.4532L187.534 41.1593C206.008 45.1502 225.132 45.0639 243.569 40.9063C237.572 34.6107 230.198 28.9932 221.577 27.8291Z" fill="#1F222A"/>
<path d="M296.819 32.3087C296.783 32.3088 296.747 32.3032 296.714 32.2923C204.493 3.15802 123.213 6.96785 71.2666 15.2942C64.1972 16.4269 57.109 17.7352 50.1987 19.183C48.4345 19.5522 46.6043 19.9479 44.7588 20.3599C42.5549 20.8502 40.3803 21.3552 38.2951 21.8601C37.3945 22.0731 36.5116 22.2878 35.6462 22.5042C34.3353 22.8275 33.0053 23.1643 31.5795 23.5345C29.9863 23.9449 28.3675 24.3753 26.7672 24.8139C26.7613 24.8159 26.7553 24.8176 26.7493 24.819L26.7495 24.8193C24.9418 25.3123 23.1438 25.8197 21.4049 26.3263C20.4638 26.5978 19.5551 26.8656 18.6847 27.13C18.5874 27.1569 18.5013 27.1827 18.4139 27.2093L18.2269 27.2661C18.1186 27.2991 18.0116 27.3314 17.9047 27.362L17.8979 27.3641L17.898 27.3644L17.615 27.4522C17.2774 27.5543 16.9481 27.654 16.6242 27.7534C8.06328 30.3897 3.35708 32.2651 3.31059 32.2835C3.26807 32.3005 3.22262 32.309 3.17682 32.3085C3.13102 32.308 3.08577 32.2985 3.04366 32.2805C3.00154 32.2625 2.96339 32.2364 2.93137 32.2036C2.89936 32.1709 2.87411 32.1322 2.85707 32.0897C2.84003 32.0473 2.83153 32.0019 2.83205 31.9561C2.83258 31.9104 2.84212 31.8652 2.86013 31.8231C2.87815 31.781 2.90427 31.7429 2.93703 31.7109C2.96979 31.6789 3.00853 31.6537 3.05104 31.6367C3.09788 31.6183 7.82707 29.7333 16.4191 27.0871C16.7442 26.9875 17.0744 26.8878 17.413 26.7853L17.676 26.7037C17.685 26.7003 17.694 26.6976 17.7032 26.6948C17.8096 26.6646 17.9159 26.6322 18.0239 26.5996L18.2112 26.5427C18.3046 26.5145 18.3965 26.4866 18.4907 26.4607C19.3552 26.1981 20.267 25.9296 21.2105 25.6571C22.95 25.1501 24.7497 24.6428 26.5587 24.149C26.5643 24.147 26.5701 24.1456 26.5757 24.1439V24.1436C28.1817 23.7036 29.8064 23.2715 31.4047 22.8598C32.8327 22.4893 34.1654 22.1517 35.4784 21.8278C36.3475 21.6118 37.2322 21.3966 38.1324 21.1824C40.22 20.6767 42.3991 20.1711 44.6069 19.6798C46.4552 19.2674 48.2886 18.8707 50.0556 18.5011C56.9767 17.051 64.076 15.7407 71.1561 14.6063C123.177 6.26796 204.573 2.45198 296.924 31.6282C297.003 31.6532 297.071 31.7058 297.115 31.7765C297.159 31.8471 297.176 31.9311 297.163 32.0134C297.151 32.0956 297.109 32.1706 297.046 32.2247C296.983 32.2789 296.902 32.3087 296.819 32.3087Z" fill="#9E9E9E"/>
<path d="M91.7257 146.28C91.605 145.928 91.4017 145.609 91.1328 145.35C91.0335 145.258 90.9261 145.175 90.8119 145.103C89.9016 144.496 88.5413 144.361 87.6764 145.103C87.5892 145.178 87.5087 145.261 87.4357 145.35C87.1776 145.667 86.9125 145.977 86.6405 146.28C86.194 146.789 85.7371 147.28 85.2593 147.758C85.1233 147.89 84.9872 148.026 84.8477 148.158C84.7675 148.238 84.6873 148.315 84.6071 148.392C84.3001 148.684 83.9862 148.967 83.6688 149.245C83.5014 149.395 83.334 149.542 83.1631 149.684C82.9085 149.897 82.6539 150.109 82.3958 150.315C82.3714 150.332 82.3469 150.35 82.3225 150.371C82.3156 150.374 82.3121 150.381 82.3051 150.385C82.3016 150.385 82.2981 150.385 82.2946 150.392C82.2852 150.395 82.2768 150.401 82.2702 150.409C82.1935 150.461 82.1412 150.496 82.1028 150.528C82.1167 150.521 82.1307 150.51 82.1446 150.503C82.0819 150.552 82.0156 150.601 81.9528 150.65C81.3424 151.099 80.7181 151.531 80.0798 151.935C78.5007 152.945 76.842 153.825 75.1201 154.566C75.005 154.611 74.8865 154.66 74.7679 154.705C70.2597 156.55 65.3694 157.27 60.52 156.803C60.0248 156.764 59.5295 156.712 59.0342 156.646C58.4622 156.562 57.8937 156.461 57.3287 156.346C55.1776 155.917 53.0728 155.283 51.0436 154.451C48.5052 153.29 46.0909 151.875 43.8377 150.228C43.4889 149.981 43.1367 149.733 42.7844 149.493C43.1855 148.51 43.5796 147.528 43.9633 146.538C44.1551 146.061 44.34 145.583 44.5213 145.103C45.9479 141.399 47.2872 137.66 48.5707 133.908C49.8682 130.107 51.0924 126.283 52.2434 122.438C52.362 122.048 52.4771 121.657 52.5887 121.267C53.1921 119.236 53.7711 117.2 54.3256 115.159C54.378 114.961 54.4338 114.766 54.4826 114.567C54.643 113.982 54.8 113.396 54.9535 112.811C55.3022 111.49 54.514 109.912 53.1258 109.595C52.4575 109.424 51.7487 109.519 51.1488 109.859C50.5489 110.2 50.1048 110.76 49.91 111.421C49.7601 111.985 49.6101 112.546 49.4566 113.111C48.7207 115.839 47.9464 118.558 47.1337 121.267C47.0151 121.657 46.8965 122.048 46.778 122.438C44.9852 128.34 43.0169 134.183 40.873 139.967C40.6149 140.667 40.3534 141.365 40.0883 142.061C39.9592 142.402 39.8302 142.744 39.6976 143.085C39.443 143.758 39.1814 144.43 38.9199 145.103C38.7699 145.496 38.6164 145.89 38.463 146.28C38.3618 146.528 38.2641 146.775 38.1665 147.019C37.172 146.662 36.1417 146.415 35.0937 146.28L34.9263 146.259C34.1138 146.162 33.292 146.169 32.4813 146.28C31.2679 146.422 30.1004 146.828 29.0614 147.47C28.0223 148.111 27.1371 148.973 26.4683 149.995C24.8046 152.611 24.8255 156.353 27.1589 158.576C29.562 160.865 33.1998 160.848 36.0284 159.416C37.5274 158.606 38.7914 157.422 39.6976 155.98C40.0448 155.458 40.3639 154.917 40.6533 154.36C40.7266 154.409 40.7998 154.458 40.873 154.51C41.1521 154.705 41.4311 154.904 41.7066 155.099C43.3121 156.261 45.004 157.299 46.7675 158.203C50.5595 160.086 54.6413 161.32 58.8424 161.851C58.9366 161.862 59.0272 161.876 59.1214 161.886C59.5853 161.945 60.0527 161.991 60.52 162.029C67.2244 162.534 73.937 161.163 79.9055 158.071C80.4112 157.81 80.9123 157.535 81.4087 157.249C82.1795 156.803 82.9329 156.329 83.6688 155.827C84.0699 155.555 84.4606 155.28 84.8477 154.991C86.5395 153.746 88.1165 152.353 89.5598 150.827C90.1074 150.252 90.6317 149.659 91.1328 149.047C91.6067 148.546 91.8798 147.889 91.9001 147.2C91.8974 146.886 91.8384 146.574 91.7257 146.28ZM33.9706 154.58C34.0439 154.527 34.1171 154.472 34.1869 154.416C34.1659 154.468 34.0648 154.527 33.9706 154.58H33.9706ZM35.0902 153.454C35.01 153.545 34.9367 153.635 34.8565 153.726C34.6125 153.999 34.3503 154.255 34.0718 154.493C34.0334 154.527 33.9915 154.562 33.9497 154.594C33.9492 154.594 33.9488 154.594 33.9483 154.594C33.9479 154.594 33.9475 154.594 33.9472 154.595C33.9469 154.595 33.9466 154.595 33.9464 154.596C33.9463 154.596 33.9462 154.597 33.9462 154.597C33.8958 154.62 33.8469 154.645 33.7997 154.674C33.6497 154.764 33.4963 154.848 33.3393 154.925C33.032 155.038 32.7159 155.125 32.3941 155.186C32.1469 155.204 31.8987 155.206 31.6512 155.193H31.6442C31.4734 155.155 31.3046 155.109 31.1385 155.054C31.0548 155.012 30.9746 154.963 30.8943 154.914C30.8629 154.886 30.835 154.858 30.8176 154.841C30.7835 154.81 30.752 154.776 30.7235 154.74C30.7235 154.74 30.7234 154.739 30.7232 154.739C30.723 154.738 30.7228 154.738 30.7225 154.738C30.7221 154.737 30.7217 154.737 30.7213 154.737C30.7209 154.737 30.7204 154.736 30.72 154.737C30.6816 154.667 30.6397 154.597 30.6014 154.527C30.5994 154.526 30.5981 154.523 30.5979 154.52C30.57 154.433 30.5456 154.343 30.5246 154.252C30.5171 154.093 30.5182 153.934 30.5281 153.775C30.5749 153.552 30.6379 153.333 30.7165 153.12C30.7871 152.968 30.8675 152.822 30.9571 152.681C30.9641 152.667 30.999 152.611 31.0374 152.548C31.0408 152.545 31.0408 152.545 31.0408 152.541C31.0932 152.482 31.1455 152.42 31.2013 152.364C31.2955 152.259 31.3966 152.169 31.4978 152.075C31.6945 151.946 31.8982 151.828 32.1081 151.723C32.4411 151.605 32.7828 151.512 33.1301 151.447C33.6422 151.407 34.1569 151.411 34.6682 151.461C35.1525 151.545 35.6303 151.663 36.0982 151.813C35.8146 152.363 35.4917 152.892 35.1321 153.395C35.1181 153.416 35.1042 153.437 35.0902 153.454ZM31.2117 152.308C31.181 152.357 31.1447 152.403 31.1036 152.444C31.1313 152.393 31.1679 152.347 31.2117 152.308Z" fill="#9E9E9E"/>
<path d="M81.2419 110.697C81.2105 111.791 81.1791 112.885 81.1477 113.979C81.0814 116.408 81.0128 118.837 80.9419 121.268C80.8687 124.003 80.7919 126.737 80.7117 129.47C80.6734 130.881 80.6338 132.292 80.5931 133.703C80.485 137.505 80.3781 141.305 80.2723 145.104C80.2618 145.497 80.2478 145.888 80.2374 146.281C80.1851 148.166 80.1327 150.051 80.0804 151.936C80.0211 153.981 79.963 156.027 79.906 158.072C79.8642 159.605 79.8212 161.139 79.777 162.675C79.4631 173.8 79.1492 184.925 78.8353 196.05C78.822 196.739 78.5422 197.396 78.0544 197.883C77.5667 198.37 76.909 198.65 76.2194 198.663C75.5273 198.657 74.8652 198.38 74.3758 197.892C73.8865 197.403 73.6091 196.741 73.6035 196.05C73.7779 189.792 73.9546 183.535 74.1337 177.277C74.2906 171.619 74.4499 165.96 74.6115 160.302C74.6638 158.438 74.7161 156.573 74.7685 154.706C74.8487 151.898 74.9277 149.09 75.0056 146.281C75.0161 145.888 75.03 145.497 75.0405 145.104C75.0475 144.759 75.0579 144.417 75.0684 144.072C75.2219 138.62 75.3753 133.166 75.5288 127.711C75.5916 125.564 75.652 123.417 75.7102 121.268C75.7799 118.819 75.8497 116.371 75.9194 113.924C75.9508 112.847 75.9787 111.774 76.0101 110.697C76.0234 110.008 76.3032 109.351 76.791 108.864C77.2787 108.377 77.9364 108.097 78.626 108.084C79.3181 108.09 79.9802 108.367 80.4695 108.856C80.9589 109.344 81.2363 110.006 81.2419 110.697Z" fill="#9E9E9E"/>
<path d="M224.742 111.423C221.999 121.799 218.72 132.026 214.92 142.063C213.871 144.832 212.798 147.595 211.651 150.325L211.915 149.701C211.403 151.001 210.749 152.241 209.965 153.398C209.912 153.473 209.858 153.547 209.802 153.62C210.074 153.274 210.125 153.205 209.957 153.415C209.868 153.519 209.781 153.625 209.689 153.727C209.445 154 209.183 154.256 208.905 154.494C208.835 154.554 208.764 154.613 208.691 154.67L209.019 154.416C208.981 154.506 208.714 154.624 208.631 154.675C208.362 154.837 208.082 154.979 207.792 155.099L208.417 154.836C207.943 155.027 207.447 155.163 206.941 155.24L207.637 155.147C207.14 155.216 206.636 155.221 206.138 155.163L206.833 155.256C206.425 155.2 206.026 155.093 205.646 154.937L206.271 155.2C206.067 155.112 205.872 155.008 205.685 154.888C205.59 154.827 205.3 154.606 205.68 154.897C206.075 155.198 205.731 154.923 205.649 154.842C205.581 154.776 205.52 154.703 205.454 154.635C205.146 154.32 205.802 155.177 205.592 154.809C205.481 154.624 205.378 154.434 205.286 154.239L205.55 154.863C205.43 154.566 205.345 154.256 205.296 153.939L205.389 154.634C205.339 154.24 205.339 153.841 205.388 153.447L205.295 154.142C205.359 153.702 205.475 153.272 205.642 152.86L205.378 153.484C205.494 153.207 205.632 152.939 205.789 152.683C205.861 152.551 205.947 152.426 206.043 152.31C206.06 152.315 205.601 152.837 205.844 152.574C205.908 152.505 205.968 152.432 206.032 152.364C206.136 152.255 206.246 152.155 206.355 152.051C206.72 151.705 205.845 152.388 206.266 152.113C206.571 151.913 206.891 151.739 207.225 151.591L206.6 151.854C207.158 151.625 207.744 151.468 208.342 151.388L207.647 151.481C208.396 151.395 209.153 151.404 209.9 151.508L209.205 151.414C210.151 151.558 211.075 151.817 211.957 152.188L211.332 151.924C213.212 152.731 214.877 153.927 216.539 155.101C218.144 156.262 219.836 157.3 221.598 158.204C225.391 160.088 229.473 161.322 233.674 161.854C239.7 162.591 245.814 161.805 251.456 159.568C257.098 157.33 262.088 153.713 265.966 149.049C266.44 148.547 266.712 147.89 266.733 147.201C266.728 146.509 266.453 145.846 265.966 145.353C265.007 144.473 263.194 144.224 262.267 145.353C261.389 146.424 260.444 147.44 259.44 148.394C258.971 148.838 258.489 149.269 257.995 149.686C257.713 149.925 257.427 150.158 257.137 150.387C256.999 150.495 256.572 150.784 257.228 150.318C257.078 150.425 256.934 150.541 256.785 150.651C254.589 152.268 252.208 153.621 249.694 154.68L250.318 154.417C247.62 155.548 244.786 156.323 241.888 156.724L242.583 156.631C239.602 157.023 236.581 157.018 233.601 156.618L234.296 156.711C231.317 156.302 228.402 155.509 225.627 154.352L226.251 154.616C223.573 153.432 221.031 151.961 218.67 150.228C217.442 149.32 216.146 148.505 214.794 147.792C213.219 146.988 211.514 146.47 209.758 146.263C206.466 145.876 203.112 147.156 201.302 149.998C199.636 152.613 199.658 156.354 201.99 158.578C204.392 160.868 208.031 160.848 210.862 159.416C213.588 158.036 215.226 155.17 216.378 152.468C218.97 146.386 221.264 140.164 223.402 133.91C225.517 127.722 227.435 121.473 229.157 115.16C229.37 114.378 229.58 113.596 229.787 112.812C230.136 111.492 229.347 109.913 227.96 109.598C227.291 109.426 226.582 109.52 225.982 109.86C225.381 110.201 224.937 110.761 224.742 111.423L224.742 111.423Z" fill="#9E9E9E"/>
<path d="M250.841 110.697L249.9 144.073L248.963 177.276L248.434 196.05C248.439 196.741 248.717 197.403 249.206 197.891C249.696 198.38 250.358 198.657 251.049 198.663C251.739 198.65 252.397 198.37 252.884 197.883C253.372 197.396 253.652 196.739 253.665 196.05L254.607 162.674L255.544 129.471L256.073 110.697C256.067 110.006 255.79 109.345 255.301 108.856C254.811 108.367 254.149 108.09 253.457 108.084C252.768 108.097 252.11 108.377 251.622 108.864C251.135 109.351 250.855 110.008 250.841 110.697Z" fill="#9E9E9E"/>
<path opacity="0.2" d="M160.297 186.731H161.109V149.784H180.058V148.975H161.109V133.385H175.743C175.528 133.113 175.308 132.843 175.081 132.578H161.109V122.281C160.841 122.167 160.57 122.056 160.297 121.952V132.578H144.374V119.385C144.102 119.397 143.833 119.416 143.562 119.439V132.578H130.859V122.735C130.587 122.855 130.318 122.982 130.051 123.115V132.578H119.373V133.385H130.051V148.975H119.373V149.784H130.051V186.731H130.859V149.784C132.528 149.784 134.18 150.112 135.721 150.75C137.262 151.387 138.663 152.322 139.842 153.5C141.022 154.679 141.958 156.078 142.596 157.617C143.234 159.157 143.563 160.807 143.562 162.474V186.731H144.374V149.784H160.297V186.731ZM130.859 148.975V133.385H143.562V148.975H130.859ZM144.374 148.975V133.385H144.693C146.742 133.385 148.772 133.789 150.665 134.572C152.558 135.356 154.278 136.504 155.727 137.952C157.176 139.399 158.326 141.118 159.11 143.009C159.894 144.901 160.297 146.928 160.297 148.975H144.374Z" fill="black"/>
<path d="M155.338 175.654C154.315 180.211 151.866 184.324 148.345 187.396C148.086 187.619 147.828 187.835 147.56 188.047C146.908 188.107 146.26 188.167 145.617 188.228C145.083 188.277 144.557 188.329 144.034 188.378L143.939 188.389L143.873 187.817L143.608 185.504C142.58 183.827 141.942 181.94 141.743 179.983C141.544 178.027 141.788 176.051 142.457 174.201C143.378 171.72 145.045 169.529 146.684 167.355C148.948 164.351 151.149 161.383 151.229 157.721C152.343 159.145 153.269 160.706 153.984 162.365C153.309 162.683 152.703 163.129 152.199 163.679C152.056 163.835 151.913 164.055 152.01 164.243C152.094 164.403 152.303 164.442 152.485 164.463C152.921 164.508 153.36 164.553 153.796 164.599C154.145 164.637 154.494 164.672 154.842 164.71C155.264 166.094 155.551 167.515 155.697 168.954C155.932 171.192 155.811 173.453 155.338 175.654Z" fill="#9E9E9E"/>
<path d="M166.918 166.52C164.86 168.015 163.656 170.164 162.722 172.534C161.764 172.84 160.902 173.39 160.221 174.129C160.078 174.286 159.935 174.506 160.033 174.694C160.116 174.854 160.326 174.892 160.507 174.913C160.943 174.959 161.382 175.004 161.818 175.049C160.884 177.851 160.026 180.749 158.372 183.115C157.273 184.677 155.84 185.976 154.176 186.916C153.723 187.175 153.255 187.406 152.774 187.61C151.003 187.746 149.264 187.891 147.56 188.045C146.908 188.105 146.26 188.165 145.617 188.227C145.084 188.275 144.557 188.328 144.034 188.376C144.03 188.185 144.03 187.993 144.034 187.801C144.144 182.697 146.024 177.788 149.353 173.913C149.51 173.732 149.67 173.555 149.834 173.377C151.521 171.577 153.504 170.081 155.697 168.952C159.153 167.157 163.027 166.317 166.918 166.52Z" fill="url(#paint1_linear_2211_11176)"/>
<path d="M146.221 186.44L145.82 187.625L145.618 188.228C145.084 188.276 144.557 188.329 144.034 188.378L143.94 188.388C143.361 188.447 142.785 188.506 142.21 188.566C142.06 188.391 141.91 188.214 141.764 188.033C138.123 183.629 136.375 177.964 136.903 172.277C137.43 166.59 140.19 161.343 144.578 157.682C144.118 160.089 144.655 162.396 145.537 164.685C145.443 164.723 145.353 164.762 145.265 164.803C144.59 165.121 143.984 165.567 143.48 166.117C143.337 166.274 143.194 166.493 143.291 166.681C143.375 166.842 143.584 166.88 143.766 166.901C144.202 166.946 144.641 166.991 145.077 167.037C145.426 167.075 145.775 167.11 146.123 167.148C146.287 167.166 146.451 167.183 146.615 167.2C146.64 167.253 146.66 167.302 146.685 167.354C147.679 169.507 148.75 171.671 149.353 173.915C149.504 174.478 149.623 175.049 149.709 175.625C149.977 177.574 149.803 179.558 149.2 181.43C148.596 183.302 147.578 185.015 146.221 186.44Z" fill="url(#paint2_linear_2211_11176)"/>
<path d="M181.328 135.905C178.325 130.054 173.674 125.131 168.203 121.514C162.714 117.901 156.416 115.701 149.87 115.11C149.011 115.032 148.151 114.986 147.289 114.973C146.27 114.957 130.943 119.374 125.808 122.98C120.677 126.542 116.455 131.26 113.485 136.752C110.519 142.274 109.061 148.479 109.256 154.742C109.51 161.044 111.268 167.193 114.384 172.678C117.457 178.145 121.82 182.779 127.095 186.177C132.444 189.587 137.818 198.629 144.134 198.948C150.498 199.269 157.756 190.741 163.56 188.151C169.364 185.54 174.382 181.455 178.113 176.303C181.739 171.254 184.085 165.402 184.949 159.249C185.847 152.948 185.428 146.45 183.274 140.428C182.722 138.881 182.072 137.37 181.328 135.905C180.707 134.683 178.888 134.234 177.749 134.967C177.162 135.328 176.737 135.901 176.563 136.567C176.388 137.233 176.477 137.94 176.811 138.542C177.175 139.26 177.514 139.989 177.827 140.73L177.564 140.105C178.75 142.954 179.556 145.945 179.962 149.003L179.869 148.309C180.301 151.626 180.293 154.987 179.846 158.302L179.939 157.608C179.487 160.923 178.601 164.165 177.304 167.25L177.568 166.626C176.901 168.2 176.123 169.725 175.241 171.189C174.794 171.929 174.319 172.652 173.818 173.357C173.597 173.667 173.37 173.971 173.141 174.274C172.843 174.67 173.548 173.757 173.24 174.145C173.187 174.211 173.135 174.278 173.082 174.344C172.924 174.541 172.763 174.737 172.6 174.932C171.513 176.228 170.326 177.437 169.051 178.549C168.733 178.826 168.41 179.097 168.082 179.362C167.919 179.493 167.757 179.631 167.586 179.754C167.593 179.749 168.137 179.336 167.815 179.575C167.714 179.651 167.613 179.727 167.512 179.803C166.835 180.303 166.141 180.779 165.428 181.228C163.788 182.261 162.066 183.159 160.282 183.916L160.906 183.652C157.827 184.947 154.591 185.832 151.281 186.283L151.977 186.19C148.668 186.637 145.315 186.643 142.005 186.208L142.701 186.301C139.692 185.898 136.75 185.103 133.948 183.937L134.573 184.201C132.95 183.516 131.385 182.702 129.893 181.765C129.155 181.3 128.436 180.807 127.737 180.285C127.637 180.211 127.538 180.135 127.438 180.06C127.119 179.819 127.668 180.238 127.672 180.24C127.486 180.107 127.308 179.965 127.137 179.814C126.799 179.539 126.466 179.258 126.139 178.97C124.829 177.818 123.605 176.57 122.479 175.239C122.197 174.906 121.921 174.568 121.651 174.224C121.534 174.076 121.321 173.775 121.792 174.409C121.73 174.325 121.666 174.244 121.603 174.161C121.453 173.961 121.304 173.761 121.158 173.559C120.646 172.851 120.159 172.125 119.697 171.382C118.654 169.701 117.744 167.941 116.975 166.118L117.239 166.743C115.98 163.751 115.119 160.607 114.678 157.392L114.772 158.087C114.374 155.123 114.368 152.12 114.755 149.155L114.661 149.849C115.058 146.978 115.831 144.171 116.962 141.501L116.698 142.126C117.409 140.454 118.248 138.84 119.207 137.298C119.688 136.526 120.197 135.773 120.734 135.038C120.856 134.872 120.98 134.706 121.105 134.541C121.218 134.392 121.529 134.021 120.998 134.676C121.05 134.612 121.1 134.546 121.152 134.481C121.447 134.108 121.749 133.74 122.058 133.378C123.229 132.009 124.498 130.725 125.854 129.538C126.197 129.238 126.545 128.945 126.899 128.657C127.059 128.527 127.221 128.397 127.384 128.269C127.449 128.218 127.515 128.168 127.58 128.117C126.883 128.67 127.386 128.267 127.544 128.149C128.273 127.604 129.021 127.085 129.789 126.595C131.495 125.504 133.291 124.559 135.155 123.77L134.531 124.033C137.237 122.898 149.229 120.218 151.41 120.511L150.714 120.417C153.92 120.864 157.053 121.729 160.034 122.989L159.409 122.726C160.919 123.367 162.387 124.103 163.804 124.931C164.511 125.346 165.205 125.783 165.885 126.242C166.207 126.46 166.525 126.682 166.84 126.909C166.997 127.023 167.154 127.138 167.309 127.254C167.396 127.318 167.482 127.384 167.568 127.448C167.93 127.72 167.069 127.055 167.449 127.355C168.72 128.354 169.928 129.43 171.065 130.579C171.623 131.147 172.162 131.733 172.682 132.337C172.949 132.647 173.21 132.962 173.466 133.281C173.593 133.439 174.025 134.013 173.495 133.31C173.625 133.482 173.756 133.652 173.884 133.825C174.986 135.316 175.965 136.893 176.811 138.542C177.436 139.761 179.247 140.215 180.39 139.48C180.977 139.119 181.402 138.546 181.576 137.88C181.751 137.214 181.662 136.507 181.328 135.905Z" fill="#9E9E9E"/>
<path d="M150.848 178.55C150.578 178.563 150.311 178.492 150.082 178.348C149.854 178.203 149.675 177.992 149.571 177.743C149.467 177.494 149.442 177.219 149.499 176.955C149.557 176.691 149.694 176.451 149.892 176.268C149.926 176.136 149.949 176.041 149.983 175.909C149.971 175.88 149.959 175.852 149.947 175.823C148.733 172.932 140.988 180.991 140.654 183.708C140.506 184.909 140.568 186.127 140.837 187.307C138.329 181.84 137.026 175.898 137.018 169.885C137.017 168.376 137.101 166.868 137.269 165.368C137.408 164.139 137.6 162.918 137.847 161.706C139.191 155.13 142.078 148.967 146.271 143.722C148.668 143.855 150.769 143.49 150.972 138.849C151.008 138.023 151.621 137.308 151.756 136.495C151.527 136.525 151.295 136.544 151.066 136.559C150.995 136.562 150.919 136.566 150.848 136.57L150.821 136.571C150.57 136.582 150.32 136.521 150.103 136.394C149.886 136.267 149.71 136.08 149.596 135.855C149.483 135.63 149.437 135.378 149.464 135.128C149.491 134.878 149.59 134.641 149.749 134.445C149.847 134.324 149.946 134.202 150.045 134.081C150.195 133.894 150.349 133.71 150.499 133.522C150.517 133.505 150.533 133.486 150.548 133.466C150.721 133.253 150.893 133.043 151.066 132.829C150.751 132.341 150.327 131.931 149.828 131.633C148.098 130.621 145.711 131.322 144.462 132.885C143.209 134.448 142.972 136.641 143.408 138.594C143.836 140.256 144.544 141.832 145.501 143.257C145.408 143.377 145.31 143.493 145.216 143.613C143.501 145.816 142.007 148.181 140.754 150.675C141.108 147.909 136.774 137.92 135.097 135.804C133.084 133.263 128.955 134.372 128.6 137.593C128.597 137.624 128.593 137.656 128.59 137.687C128.839 137.827 129.083 137.976 129.321 138.134C129.621 138.334 129.853 138.619 129.987 138.953C130.122 139.287 130.152 139.654 130.074 140.005C129.996 140.357 129.814 140.676 129.551 140.923C129.288 141.169 128.957 141.33 128.6 141.385L128.564 141.39C125.231 146.144 135.915 158.517 138.59 155.739C137.331 159.302 136.541 163.014 136.241 166.781C136.071 169.003 136.081 171.236 136.271 173.457L136.26 173.378C135.665 168.541 125.471 161.35 122.494 161.949C120.78 162.294 119.091 162.215 119.351 163.943C119.355 163.971 119.359 163.998 119.364 164.026C119.826 164.214 120.275 164.431 120.711 164.675C120.96 164.815 121.203 164.964 121.442 165.121C121.741 165.321 121.973 165.607 122.108 165.941C122.242 166.275 122.272 166.642 122.194 166.993C122.116 167.344 121.934 167.664 121.671 167.91C121.408 168.156 121.077 168.317 120.721 168.372L120.684 168.378C120.658 168.382 120.636 168.385 120.609 168.389C119.092 173.604 130.343 182.019 137.183 179.342H137.186C137.864 182.284 138.846 185.148 140.117 187.888H150.586C150.623 187.771 150.657 187.652 150.691 187.535C149.722 187.596 148.749 187.538 147.794 187.363C148.571 186.411 149.347 185.451 150.124 184.499C150.141 184.481 150.158 184.463 150.173 184.443C150.567 183.956 150.965 183.472 151.358 182.985L151.359 182.984C151.38 181.491 151.208 180.001 150.848 178.551L150.848 178.55ZM138.86 154.993L138.865 154.985L138.86 155V154.993ZM136.541 175.874L136.451 175.672C136.455 175.526 136.455 175.38 136.451 175.23C136.451 175.188 136.444 175.147 136.444 175.106C136.477 175.365 136.507 175.623 136.545 175.882L136.541 175.874Z" fill="#9E9E9E"/>
<path d="M33.2214 156.79C35.3403 156.79 37.058 155.074 37.058 152.958C37.058 150.841 35.3403 149.125 33.2214 149.125C31.1025 149.125 29.3848 150.841 29.3848 152.958C29.3848 155.074 31.1025 156.79 33.2214 156.79Z" fill="#9E9E9E"/>
<path d="M79.2605 198.601C81.3794 198.601 83.0971 196.885 83.0971 194.768C83.0971 192.651 81.3794 190.936 79.2605 190.936C77.1415 190.936 75.4238 192.651 75.4238 194.768C75.4238 196.885 77.1415 198.601 79.2605 198.601Z" fill="#9E9E9E"/>
<path d="M254.001 198.601C256.12 198.601 257.837 196.885 257.837 194.768C257.837 192.651 256.12 190.936 254.001 190.936C251.882 190.936 250.164 192.651 250.164 194.768C250.164 196.885 251.882 198.601 254.001 198.601Z" fill="#9E9E9E"/>
<path d="M263.419 149.822C265.538 149.822 267.255 148.106 267.255 145.989C267.255 143.872 265.538 142.156 263.419 142.156C261.3 142.156 259.582 143.872 259.582 145.989C259.582 148.106 261.3 149.822 263.419 149.822Z" fill="#9E9E9E"/>
<path d="M252.258 114.282C254.377 114.282 256.095 112.567 256.095 110.45C256.095 108.333 254.377 106.617 252.258 106.617C250.14 106.617 248.422 108.333 248.422 110.45C248.422 112.567 250.14 114.282 252.258 114.282Z" fill="#9E9E9E"/>
<path d="M92.165 145.988C92.1627 146.967 91.7837 147.908 91.1065 148.615C90.4293 149.323 89.5056 149.743 88.5267 149.79C87.5478 149.836 86.5885 149.504 85.8474 148.864C85.1063 148.223 84.6401 147.322 84.5453 146.348C84.4504 145.374 84.7342 144.4 85.3379 143.629C85.9416 142.858 86.819 142.348 87.7885 142.205C88.758 142.062 89.7455 142.297 90.5465 142.861C91.3475 143.425 91.9007 144.275 92.0918 145.235C92.141 145.483 92.1655 145.735 92.165 145.988Z" fill="#9E9E9E"/>
<path d="M168.899 125.431C171.018 125.431 172.736 123.715 172.736 121.598C172.736 119.482 171.018 117.766 168.899 117.766C166.78 117.766 165.062 119.482 165.062 121.598C165.062 123.715 166.78 125.431 168.899 125.431Z" fill="#9E9E9E"/>
<path d="M130.88 121.599C130.878 122.578 130.499 123.519 129.821 124.226C129.144 124.934 128.22 125.355 127.242 125.401C126.263 125.447 125.303 125.116 124.562 124.475C123.821 123.835 123.355 122.934 123.26 121.959C123.165 120.985 123.449 120.011 124.053 119.24C124.656 118.469 125.534 117.959 126.503 117.816C127.473 117.673 128.46 117.908 129.261 118.472C130.062 119.036 130.616 119.886 130.807 120.847C130.856 121.094 130.88 121.347 130.88 121.599Z" fill="#9E9E9E"/>
<path d="M81.3525 110.449C81.3502 111.428 80.9712 112.368 80.294 113.076C79.6168 113.784 78.6931 114.204 77.7142 114.25C76.7353 114.297 75.776 113.965 75.0349 113.325C74.2938 112.684 73.8276 111.783 73.7328 110.809C73.6379 109.835 73.9217 108.861 74.5254 108.09C75.1291 107.319 76.0065 106.809 76.976 106.666C77.9455 106.523 78.933 106.758 79.734 107.322C80.535 107.886 81.0882 108.736 81.2793 109.696C81.3285 109.944 81.353 110.196 81.3525 110.449Z" fill="#9E9E9E"/>
<path d="M209.008 158.183C211.127 158.183 212.845 156.467 212.845 154.35C212.845 152.234 211.127 150.518 209.008 150.518C206.89 150.518 205.172 152.234 205.172 154.35C205.172 156.467 206.89 158.183 209.008 158.183Z" fill="#9E9E9E"/>
<path d="M148.668 123.341C151.75 123.341 154.249 120.845 154.249 117.766C154.249 114.687 151.75 112.191 148.668 112.191C145.586 112.191 143.088 114.687 143.088 117.766C143.088 120.845 145.586 123.341 148.668 123.341Z" fill="#9E9E9E"/>
<path d="M299.585 198.893L0.415288 199C0.360751 199 0.306747 198.99 0.256362 198.969C0.205976 198.948 0.160198 198.917 0.121635 198.879C0.0830715 198.84 0.0524778 198.794 0.0316075 198.744C0.0107372 198.694 0 198.64 0 198.585C0 198.53 0.0107372 198.476 0.0316075 198.426C0.0524778 198.376 0.0830715 198.33 0.121635 198.291C0.160198 198.253 0.205976 198.222 0.256362 198.201C0.306747 198.18 0.360751 198.17 0.415288 198.17L299.585 198.062C299.695 198.063 299.8 198.107 299.878 198.185C299.955 198.262 299.999 198.368 299.999 198.478C299.999 198.588 299.955 198.693 299.878 198.771C299.8 198.849 299.695 198.893 299.585 198.893Z" fill="#9E9E9E"/>
</g>
<defs>
<linearGradient id="paint0_linear_2211_11176" x1="244.236" y1="35.5389" x2="201.911" y2="23.2543" gradientUnits="userSpaceOnUse">
<stop stop-color="#FE4E6F"/>
<stop offset="1" stop-color="#FF4451"/>
</linearGradient>
<linearGradient id="paint1_linear_2211_11176" x1="166.918" y1="188.376" x2="139.881" y2="180.179" gradientUnits="userSpaceOnUse">
<stop stop-color="#FE4E6F"/>
<stop offset="1" stop-color="#FF4451"/>
</linearGradient>
<linearGradient id="paint2_linear_2211_11176" x1="149.831" y1="188.566" x2="133.283" y2="186.543" gradientUnits="userSpaceOnUse">
<stop stop-color="#FE4E6F"/>
<stop offset="1" stop-color="#FF4451"/>
</linearGradient>
<clipPath id="clip0_2211_11176">
<rect width="300" height="199" fill="white"/>
</clipPath>
</defs>
</svg>
