<svg width="25" height="24" viewBox="0 0 25 24" fill="none" xmlns="http://www.w3.org/2000/svg">
<path d="M0.799805 4.75C0.799805 3.784 1.5838 3 2.5498 3H23.0498C24.0158 3 24.7998 3.784 24.7998 4.75V19.25C24.7998 19.7141 24.6154 20.1592 24.2872 20.4874C23.9591 20.8156 23.5139 21 23.0498 21H2.5498C2.08568 21 1.64056 20.8156 1.31237 20.4874C0.984179 20.1592 0.799805 19.7141 0.799805 19.25V4.75ZM2.5498 4.5C2.4835 4.5 2.41991 4.52634 2.37303 4.57322C2.32614 4.62011 2.2998 4.6837 2.2998 4.75V19.25C2.2998 19.388 2.4118 19.5 2.5498 19.5H23.0498C23.1161 19.5 23.1797 19.4737 23.2266 19.4268C23.2735 19.3799 23.2998 19.3163 23.2998 19.25V4.75C23.2998 4.6837 23.2735 4.62011 23.2266 4.57322C23.1797 4.52634 23.1161 4.5 23.0498 4.5H2.5498Z" fill="#9E9E9E"/>
<path d="M9.7998 15.5832V8.41518C9.79995 8.3255 9.82422 8.23751 9.87007 8.16043C9.91591 8.08334 9.98164 8.02001 10.0604 7.97707C10.1391 7.93412 10.2279 7.91314 10.3176 7.91633C10.4072 7.91952 10.4943 7.94675 10.5698 7.99518L16.1458 11.5782C16.2164 11.6234 16.2745 11.6857 16.3147 11.7593C16.355 11.8328 16.3761 11.9153 16.3761 11.9992C16.3761 12.083 16.355 12.1655 16.3147 12.2391C16.2745 12.3127 16.2164 12.3749 16.1458 12.4202L10.5698 16.0042C10.4943 16.0526 10.4072 16.0798 10.3176 16.083C10.2279 16.0862 10.1391 16.0652 10.0604 16.0223C9.98164 15.9794 9.91591 15.916 9.87007 15.8389C9.82422 15.7619 9.79995 15.6739 9.7998 15.5842V15.5832Z" fill="#9E9E9E"/>
</svg>
