<svg width="27" height="26" viewBox="0 0 27 26" fill="none" xmlns="http://www.w3.org/2000/svg">
<path d="M16.775 14.2914C17.1953 13.6921 17.443 12.9889 17.4913 12.2585C17.5396 11.5281 17.3865 10.7985 17.0487 10.1491C16.7109 9.49965 16.2014 8.95537 15.5757 8.57552C14.95 8.19567 14.232 7.99481 13.5 7.99481C12.768 7.99481 12.05 8.19567 11.4243 8.57552C10.7986 8.95537 10.2891 9.49965 9.95131 10.1491C9.61354 10.7985 9.46045 11.5281 9.5087 12.2585C9.55696 12.9889 9.80472 13.6921 10.225 14.2914C9.7967 14.4936 9.4217 14.7933 9.13 15.1664C8.85008 15.5236 8.65602 15.9403 8.56282 16.3844C8.46962 16.8285 8.47977 17.2881 8.5925 17.7277L10.115 23.7277C10.282 24.3797 10.6619 24.9574 11.1945 25.3691C11.7271 25.7807 12.3819 26.0028 13.055 26.0002H13.945C14.6176 26.003 15.272 25.7815 15.8045 25.3706C16.337 24.9596 16.7173 24.3828 16.885 23.7314L18.4075 17.7314C18.5202 17.2919 18.5304 16.8323 18.4372 16.3882C18.344 15.944 18.1499 15.5273 17.87 15.1702C17.5787 14.7956 17.2037 14.4947 16.775 14.2914ZM13.5 10.0002C13.8956 10.0002 14.2822 10.1175 14.6111 10.3372C14.94 10.557 15.1964 10.8693 15.3478 11.2348C15.4991 11.6002 15.5387 12.0024 15.4616 12.3903C15.3844 12.7783 15.1939 13.1347 14.9142 13.4144C14.6345 13.6941 14.2781 13.8846 13.8902 13.9617C13.5022 14.0389 13.1001 13.9993 12.7346 13.8479C12.3692 13.6965 12.0568 13.4402 11.8371 13.1113C11.6173 12.7824 11.5 12.3957 11.5 12.0002C11.5 11.4697 11.7107 10.961 12.0858 10.5859C12.4609 10.2109 12.9696 10.0002 13.5 10.0002ZM16.4688 17.2389L14.9463 23.2389C14.8881 23.459 14.7582 23.6534 14.577 23.7913C14.3959 23.9292 14.1739 24.0027 13.9463 24.0002H13.0563C12.8286 24.0027 12.6066 23.9292 12.4255 23.7913C12.2443 23.6534 12.1144 23.459 12.0563 23.2389L10.5338 17.2389C10.4962 17.0945 10.4927 16.9434 10.5235 16.7974C10.5543 16.6514 10.6186 16.5146 10.7113 16.3977C10.8087 16.2727 10.9335 16.1719 11.0761 16.103C11.2188 16.0341 11.3753 15.9989 11.5338 16.0002H15.4713C15.6297 15.9989 15.7862 16.0341 15.9289 16.103C16.0715 16.1719 16.1963 16.2727 16.2938 16.3977C16.386 16.5148 16.4498 16.6517 16.4802 16.7977C16.5106 16.9437 16.5066 17.0947 16.4688 17.2389ZM6.5 13.0002C6.49859 13.6336 6.58268 14.2643 6.75 14.8752C6.81445 15.1284 6.77718 15.3969 6.64618 15.623C6.51518 15.8492 6.30085 16.015 6.04908 16.0851C5.7973 16.1552 5.5281 16.124 5.29908 15.998C5.07007 15.8721 4.89945 15.6616 4.82375 15.4114C4.45215 14.0745 4.3947 12.6698 4.65588 11.3071C4.91706 9.94428 5.48981 8.66036 6.32937 7.55561C7.16894 6.45085 8.25257 5.55518 9.49561 4.93857C10.7387 4.32197 12.1074 4.00113 13.495 4.00113C14.8826 4.00113 16.2514 4.32197 17.4944 4.93857C18.7374 5.55518 19.8211 6.45085 20.6606 7.55561C21.5002 8.66036 22.0729 9.94428 22.3341 11.3071C22.5953 12.6698 22.5379 14.0745 22.1663 15.4114C22.0758 15.6421 21.9029 15.8311 21.6811 15.9416C21.4593 16.0521 21.2044 16.0763 20.9657 16.0095C20.7271 15.9427 20.5217 15.7897 20.3895 15.5801C20.2573 15.3705 20.2075 15.1193 20.25 14.8752C20.5142 13.9134 20.5697 12.9063 20.413 11.9213C20.2563 10.9363 19.8909 9.99622 19.3413 9.16394C18.7917 8.33165 18.0706 7.62642 17.2263 7.09549C16.382 6.56455 15.434 6.22017 14.4458 6.08541C13.4575 5.95065 12.4519 6.02863 11.4963 6.31412C10.5406 6.59961 9.65705 7.08601 8.90468 7.74076C8.15231 8.3955 7.54854 9.20346 7.13382 10.1105C6.7191 11.0176 6.503 12.0028 6.5 13.0002ZM26.5 13.0002C26.5012 15.1375 25.975 17.242 24.968 19.1273C23.9611 21.0125 22.5045 22.6201 20.7275 23.8077C20.507 23.9552 20.237 24.0091 19.9768 23.9575C19.7166 23.9059 19.4875 23.7531 19.34 23.5327C19.1925 23.3122 19.1386 23.0422 19.1901 22.782C19.2417 22.5217 19.3945 22.2927 19.615 22.1452C21.5763 20.8335 23.0639 18.9259 23.8581 16.7041C24.6523 14.4823 24.7111 12.064 24.0257 9.80621C23.3403 7.54844 21.9471 5.5709 20.0518 4.16553C18.1565 2.76017 15.8595 2.00148 13.5 2.00148C11.1405 2.00148 8.84352 2.76017 6.94821 4.16553C5.0529 5.5709 3.6597 7.54844 2.97431 9.80621C2.28892 12.064 2.34767 14.4823 3.14189 16.7041C3.9361 18.9259 5.42368 20.8335 7.385 22.1452C7.60546 22.2927 7.75829 22.5217 7.80986 22.782C7.86143 23.0422 7.80753 23.3122 7.66 23.5327C7.51248 23.7531 7.28341 23.9059 7.02321 23.9575C6.763 24.0091 6.49296 23.9552 6.2725 23.8077C4.40595 22.5592 2.89463 20.8485 1.88578 18.8423C0.876933 16.8361 0.404965 14.6028 0.515865 12.3599C0.626765 10.1171 1.31675 7.94122 2.51859 6.04432C3.72043 4.14742 5.39315 2.59419 7.37375 1.53596C9.35436 0.477727 11.5753 -0.0494137 13.8202 0.0058981C16.0651 0.0612099 18.2574 0.697088 20.1835 1.85158C22.1096 3.00606 23.7038 4.63979 24.8107 6.59358C25.9177 8.54736 26.4997 10.7546 26.5 13.0002Z" fill="#F0F0F0"/>
</svg>
