<svg width="28" height="22" viewBox="0 0 28 22" fill="none" xmlns="http://www.w3.org/2000/svg">
<path d="M27.65 13.9838C27.5665 13.7507 27.4684 13.5232 27.3563 13.3025L22.1575 1.475C22.1083 1.36109 22.0379 1.25758 21.95 1.17C21.5786 0.79847 21.1376 0.503751 20.6522 0.302675C20.1668 0.101599 19.6466 -0.00189447 19.1213 -0.00189447C18.5959 -0.00189447 18.0757 0.101599 17.5903 0.302675C17.1049 0.503751 16.6639 0.79847 16.2925 1.17C16.1056 1.35709 16.0005 1.61057 16 1.875V5H12V1.875C12.0001 1.74364 11.9743 1.61355 11.9241 1.49215C11.8739 1.37076 11.8003 1.26044 11.7075 1.1675C11.3361 0.79597 10.8951 0.501251 10.4097 0.300175C9.92433 0.0990988 9.40411 -0.00439453 8.87875 -0.00439453C8.35339 -0.00439453 7.83317 0.0990988 7.34781 0.300175C6.86244 0.501251 6.42145 0.79597 6.05 1.1675C5.9621 1.25508 5.89168 1.35859 5.8425 1.4725L0.643751 13.3C0.53161 13.5207 0.433498 13.7482 0.350001 13.9813C0.0556253 14.8049 -0.0551009 15.683 0.0255784 16.554C0.106258 17.4249 0.376391 18.2677 0.817056 19.0233C1.25772 19.7789 1.85826 20.429 2.5766 20.928C3.29494 21.4271 4.11372 21.7631 4.97557 21.9124C5.83742 22.0618 6.7215 22.0209 7.56588 21.7926C8.41026 21.5643 9.19452 21.1542 9.86371 20.5909C10.5329 20.0277 11.0709 19.3249 11.4399 18.5319C11.8089 17.7388 12.0001 16.8747 12 16V7H16V16C15.9996 16.8748 16.1904 17.7391 16.5592 18.5324C16.928 19.3256 17.4658 20.0287 18.1349 20.5922C18.804 21.1558 19.5882 21.5662 20.4326 21.7947C21.277 22.0232 22.1612 22.0643 23.0232 21.9151C23.8852 21.766 24.7041 21.4301 25.4226 20.9311C26.1411 20.4321 26.7418 19.782 27.1826 19.0263C27.6234 18.2707 27.8937 17.4278 27.9744 16.5568C28.0551 15.6857 27.9444 14.8075 27.65 13.9838ZM7.58875 2.46875C7.92215 2.18803 8.33813 2.0239 8.77339 2.00134C9.20864 1.97877 9.63936 2.09901 10 2.34375V11.5325C9.21925 10.8314 8.26797 10.3479 7.24147 10.1302C6.21498 9.91261 5.14931 9.96857 4.15125 10.2925L7.58875 2.46875ZM6 20C5.20888 20 4.43552 19.7654 3.77772 19.3259C3.11992 18.8864 2.60723 18.2616 2.30448 17.5307C2.00173 16.7998 1.92252 15.9956 2.07686 15.2196C2.2312 14.4437 2.61216 13.731 3.17157 13.1716C3.73098 12.6122 4.44372 12.2312 5.21964 12.0769C5.99556 11.9225 6.79983 12.0017 7.53073 12.3045C8.26164 12.6072 8.88635 13.1199 9.32588 13.7777C9.7654 14.4355 10 15.2089 10 16C10 17.0609 9.57857 18.0783 8.82843 18.8284C8.07828 19.5786 7.06087 20 6 20ZM18 2.3425C18.3606 2.09776 18.7914 1.97752 19.2266 2.00009C19.6619 2.02265 20.0779 2.18678 20.4112 2.4675L23.8487 10.29C22.8506 9.96623 21.7849 9.91047 20.7584 10.1283C19.7318 10.3462 18.7806 10.83 18 11.5313V2.3425ZM22 20C21.2089 20 20.4355 19.7654 19.7777 19.3259C19.1199 18.8864 18.6072 18.2616 18.3045 17.5307C18.0017 16.7998 17.9225 15.9956 18.0769 15.2196C18.2312 14.4437 18.6122 13.731 19.1716 13.1716C19.731 12.6122 20.4437 12.2312 21.2196 12.0769C21.9956 11.9225 22.7998 12.0017 23.5307 12.3045C24.2616 12.6072 24.8864 13.1199 25.3259 13.7777C25.7654 14.4355 26 15.2089 26 16C26 17.0609 25.5786 18.0783 24.8284 18.8284C24.0783 19.5786 23.0609 20 22 20Z" fill="#F0F0F0"/>
</svg>
