<svg xmlns="http://www.w3.org/2000/svg" width="59" height="59" viewBox="0 0 59 59" fill="none">
    <path fill-rule="evenodd" clip-rule="evenodd" d="M47.2045 10.6416C49.0354 11.2443 50.2726 12.9342 50.2726 14.8144L50.3963 31.132C50.421 36.0738 48.6148 40.871 45.2993 44.634C43.79 46.3696 41.8353 47.8401 39.361 49.166L30.5774 53.8667C30.3052 54.0113 30.0083 54.0837 29.7114 54.0837C29.4145 54.0837 29.0928 54.0113 28.8206 53.8667L19.9627 49.2865C17.4637 47.9848 15.5091 46.5384 13.975 44.8268C10.61 41.1145 8.72955 36.3173 8.7048 31.3755L8.60583 15.0531C8.58109 13.1728 9.81823 11.4878 11.6244 10.8586L27.8804 5.17192C28.8454 4.83202 29.9093 4.83202 30.899 5.17192L47.2045 10.6416ZM35.4517 34.6299C36.1692 33.9308 36.1692 32.7737 35.4517 32.0746L32.1114 28.8178L35.4517 25.5659C36.1692 24.8668 36.1692 23.7338 35.4517 23.0082C34.7341 22.3091 33.5465 22.3091 32.829 23.0082L29.4887 26.265L26.1484 23.0082C25.4309 22.3091 24.268 22.3091 23.5257 23.0082C22.8082 23.7338 22.8082 24.8668 23.5257 25.5659L26.866 28.8178L23.5257 32.0746C22.8082 32.7737 22.8082 33.9308 23.5257 34.6299C23.8968 34.9914 24.3669 35.1578 24.8371 35.1578C25.3319 35.1578 25.802 34.9914 26.1484 34.6299L29.4887 31.3755L32.829 34.6299C33.2001 34.9914 33.6702 35.1578 34.1403 35.1578C34.6104 35.1578 35.1053 34.9914 35.4517 34.6299Z" fill="white"/>
    </svg>