<svg width="32" height="30" viewBox="0 0 32 30" fill="none" xmlns="http://www.w3.org/2000/svg">
<path fill-rule="evenodd" clip-rule="evenodd" d="M17.8404 1.96135L20.8861 8.04593C21.1846 8.64327 21.7608 9.05746 22.4289 9.15331L29.2422 10.134C30.9256 10.3771 31.5955 12.4173 30.3772 13.5862L25.4503 18.3204C24.9661 18.786 24.7457 19.4552 24.8603 20.1124L26.023 26.796C26.3093 28.4494 24.5496 29.7108 23.045 28.9286L16.9554 25.7708C16.3584 25.461 15.6434 25.461 15.0446 25.7708L8.95501 28.9286C7.45039 29.7108 5.69066 28.4494 5.97874 26.796L7.13974 20.1124C7.25428 19.4552 7.03388 18.786 6.5497 18.3204L1.6228 13.5862C0.404525 12.4173 1.0744 10.3771 2.75777 10.134L9.57109 9.15331C10.2392 9.05746 10.8171 8.64327 11.1156 8.04593L14.1596 1.96135C14.9128 0.456893 17.0872 0.456893 17.8404 1.96135Z" stroke="url(#paint0_linear_2309_7220)" stroke-width="1.5" stroke-linecap="round" stroke-linejoin="round"/>
<defs>
<linearGradient id="paint0_linear_2309_7220" x1="31" y1="29.1663" x2="-4.36518" y2="18.3094" gradientUnits="userSpaceOnUse">
<stop stop-color="#FE4E6F"/>
<stop offset="1" stop-color="#FF4451"/>
</linearGradient>
</defs>
</svg>
