<svg width="59" height="59" viewBox="0 0 59 59" fill="none" xmlns="http://www.w3.org/2000/svg">
<path fill-rule="evenodd" clip-rule="evenodd" d="M18.8548 4.91724H40.1685C48.5023 4.91724 54.0827 10.7681 54.0827 19.4706V39.5576C54.0827 48.2331 48.5023 54.0839 40.1685 54.0839H18.8548C10.521 54.0839 4.91602 48.2331 4.91602 39.5576V19.4706C4.91602 10.7681 10.521 4.91724 18.8548 4.91724ZM28.098 36.851L39.775 25.1739C40.6109 24.338 40.6109 22.986 39.775 22.1255C38.9392 21.2897 37.5625 21.2897 36.7267 22.1255L26.5738 32.2785L22.2717 27.9764C21.4359 27.1405 20.0592 27.1405 19.2234 27.9764C18.3875 28.8122 18.3875 30.1643 19.2234 31.0247L25.0742 36.851C25.4921 37.2689 26.033 37.4655 26.5738 37.4655C27.1392 37.4655 27.68 37.2689 28.098 36.851Z" fill="white"/>
</svg>
