<svg width="27" height="25" viewBox="0 0 27 25" fill="none" xmlns="http://www.w3.org/2000/svg">
<path d="M24.5 6.00007H15.9137L20.2075 1.70757C20.3951 1.51993 20.5006 1.26543 20.5006 1.00007C20.5006 0.734704 20.3951 0.480209 20.2075 0.292568C20.0199 0.104927 19.7654 -0.000488281 19.5 -0.000488281C19.2346 -0.000488281 18.9801 0.104927 18.7925 0.292568L13.5 5.58632L8.2075 0.292568C8.11459 0.199658 8.00429 0.125957 7.8829 0.0756744C7.7615 0.0253918 7.63139 -0.000488281 7.5 -0.000488281C7.36861 -0.000488281 7.2385 0.0253918 7.1171 0.0756744C6.99571 0.125957 6.88541 0.199658 6.7925 0.292568C6.60486 0.480209 6.49944 0.734704 6.49944 1.00007C6.49944 1.26543 6.60486 1.51993 6.7925 1.70757L11.0863 6.00007H2.5C1.96957 6.00007 1.46086 6.21078 1.08579 6.58585C0.710714 6.96093 0.5 7.46963 0.5 8.00007V23.0001C0.5 23.5305 0.710714 24.0392 1.08579 24.4143C1.46086 24.7894 1.96957 25.0001 2.5 25.0001H24.5C25.0304 25.0001 25.5391 24.7894 25.9142 24.4143C26.2893 24.0392 26.5 23.5305 26.5 23.0001V8.00007C26.5 7.46963 26.2893 6.96093 25.9142 6.58585C25.5391 6.21078 25.0304 6.00007 24.5 6.00007ZM24.5 23.0001H2.5V8.00007H24.5V23.0001ZM22.5 10.5001V20.5001C22.5 20.6327 22.4473 20.7599 22.3536 20.8536C22.2598 20.9474 22.1326 21.0001 22 21.0001H5C4.86739 21.0001 4.74021 20.9474 4.64645 20.8536C4.55268 20.7599 4.5 20.6327 4.5 20.5001V10.5001C4.5 10.3675 4.55268 10.2403 4.64645 10.1465C4.74021 10.0527 4.86739 10.0001 5 10.0001H22C22.1326 10.0001 22.2598 10.0527 22.3536 10.1465C22.4473 10.2403 22.5 10.3675 22.5 10.5001Z" fill="white"/>
</svg>
