<svg width="25" height="24" viewBox="0 0 25 24" fill="none" xmlns="http://www.w3.org/2000/svg">
<path fill-rule="evenodd" clip-rule="evenodd" d="M17.0964 15.5383C17.1773 17.3704 15.6987 18.9196 13.7942 18.9975C13.6539 19.0034 6.81487 18.9896 6.81487 18.9896C4.91952 19.1335 3.26071 17.7715 3.11121 15.9463C3.09995 15.8103 3.10302 8.47219 3.10302 8.47219C3.01906 6.63815 4.4956 5.08499 6.40119 5.00418C6.54352 4.99728 13.3733 5.01009 13.3733 5.01009C15.2779 4.86818 16.9418 6.24001 17.0893 8.07405C17.0995 8.2061 17.0964 15.5383 17.0964 15.5383Z" stroke="#9E9E9E" stroke-width="1.5" stroke-linecap="round" stroke-linejoin="round"/>
<path d="M17.0996 9.97984L20.3926 7.28484C21.2086 6.61684 22.4326 7.19884 22.4316 8.25184L22.4196 15.6008C22.4186 16.6538 21.1936 17.2308 20.3796 16.5628L17.0996 13.8678" stroke="#9E9E9E" stroke-width="1.5" stroke-linecap="round" stroke-linejoin="round"/>
</svg>
