<svg width="28" height="28" viewBox="0 0 28 28" fill="none" xmlns="http://www.w3.org/2000/svg">
<path d="M22.6738 6.73633C25.5831 11.0763 25.5916 16.8036 22.6738 21.1531" stroke="white" stroke-width="1.5" stroke-linecap="round" stroke-linejoin="round"/>
<path d="M19.8203 9.58691C21.3158 12.2968 21.3158 15.6037 19.8203 18.304" stroke="white" stroke-width="1.5" stroke-linecap="round" stroke-linejoin="round"/>
<path fill-rule="evenodd" clip-rule="evenodd" d="M3.12919 13.9448C3.12601 15.3989 3.12919 17.1043 4.32979 18.1236C5.53146 19.1439 6.48389 18.7228 8.03767 19.234C9.59252 19.7463 11.7699 22.9048 14.1754 21.4783C15.4757 20.5545 16.0887 18.8108 16.0887 13.9448C16.0887 9.07873 15.5033 7.35418 14.1754 6.4113C11.7699 4.98585 9.59252 8.14433 8.03767 8.65554C6.48389 9.16782 5.53146 8.74676 4.32979 9.766C3.12919 10.7852 3.12601 12.4907 3.12919 13.9448Z" stroke="white" stroke-width="1.5" stroke-linecap="round" stroke-linejoin="round"/>
</svg>
