<svg width="28" height="28" viewBox="0 0 28 28" fill="none" xmlns="http://www.w3.org/2000/svg">
<path d="M19.5275 6.72581C19.2862 6.96702 18.8952 6.96702 18.654 6.72581L17.525 5.59687C17.1359 5.20777 16.4706 5.48335 16.4706 6.03362L16.4706 10.9117C16.4706 11.2528 16.7472 11.5294 17.0883 11.5294L21.9664 11.5294C22.5167 11.5294 22.7922 10.8641 22.4031 10.475L21.2742 9.34604C21.033 9.10483 21.033 8.71375 21.2742 8.47254L24.3191 5.42764C24.5603 5.18643 24.5603 4.79535 24.3191 4.55414L23.4459 3.68091C23.2046 3.4397 22.8136 3.4397 22.5724 3.68091L19.5275 6.72581ZM5.42763 3.68091C5.18643 3.4397 4.79535 3.4397 4.55414 3.68091L3.68091 4.55414C3.4397 4.79535 3.4397 5.18643 3.68091 5.42763L6.72581 8.47254C6.96702 8.71375 6.96702 9.10483 6.72581 9.34604L5.59687 10.475C5.20777 10.8641 5.48335 11.5294 6.03362 11.5294L10.9117 11.5294C11.2528 11.5294 11.5294 11.2528 11.5294 10.9117L11.5294 6.03362C11.5294 5.48335 10.8641 5.20777 10.475 5.59687L9.34604 6.72581C9.10483 6.96702 8.71375 6.96702 8.47254 6.72581L5.42763 3.68091ZM22.4031 17.525C22.7922 17.1359 22.5167 16.4706 21.9664 16.4706L17.0883 16.4706C16.7472 16.4706 16.4706 16.7472 16.4706 17.0883L16.4706 21.9664C16.4706 22.5167 17.1359 22.7922 17.525 22.4031L18.654 21.2742C18.8952 21.033 19.2862 21.033 19.5275 21.2742L22.5724 24.3191C22.8136 24.5603 23.2046 24.5603 23.4459 24.3191L24.3191 23.4459C24.5603 23.2046 24.5603 22.8136 24.3191 22.5724L21.2742 19.5275C21.033 19.2862 21.033 18.8952 21.2742 18.654L22.4031 17.525ZM6.72581 18.654C6.96702 18.8952 6.96702 19.2862 6.72581 19.5275L3.68091 22.5724C3.4397 22.8136 3.4397 23.2046 3.68091 23.4459L4.55414 24.3191C4.79535 24.5603 5.18642 24.5603 5.42763 24.3191L8.47254 21.2742C8.71375 21.033 9.10483 21.033 9.34604 21.2742L10.475 22.4031C10.8641 22.7922 11.5294 22.5166 11.5294 21.9664L11.5294 17.0883C11.5294 16.7472 11.2528 16.4706 10.9117 16.4706L6.03362 16.4706C5.48335 16.4706 5.20777 17.1359 5.59687 17.525L6.72581 18.654Z" fill="white"/>
</svg>
