<svg width="28" height="28" viewBox="0 0 28 28" fill="none" xmlns="http://www.w3.org/2000/svg">
<path d="M3.5 7.95469L3.5 20.2667C3.5 22.7882 6.24028 24.3706 8.42735 23.1099L13.7664 20.0351L19.1054 16.9474C21.2925 15.6867 21.2925 12.5347 19.1054 11.2739L13.7664 8.18627L8.42736 5.11149C6.24028 3.85071 3.5 5.42026 3.5 7.95469Z" fill="white"/>
<path d="M24.7012 23.0196C24.1737 23.0196 23.7363 22.5822 23.7363 22.0547L23.7363 6.15336C23.7363 5.62589 24.1737 5.18848 24.7012 5.18848C25.2287 5.18848 25.6661 5.62589 25.6661 6.15336L25.6661 22.0547C25.6661 22.5822 25.2416 23.0196 24.7012 23.0196Z" fill="white"/>
</svg>
