<svg width="28" height="28" viewBox="0 0 28 28" fill="none" xmlns="http://www.w3.org/2000/svg">
<path d="M13.9993 11.667C12.716 11.667 11.666 12.717 11.666 14.0003C11.666 15.2837 12.716 16.3337 13.9993 16.3337C15.2827 16.3337 16.3327 15.2837 16.3327 14.0003C16.3327 12.717 15.2827 11.667 13.9993 11.667ZM13.9993 4.66699C12.716 4.66699 11.666 5.71699 11.666 7.00033C11.666 8.28366 12.716 9.33366 13.9993 9.33366C15.2827 9.33366 16.3327 8.28366 16.3327 7.00033C16.3327 5.71699 15.2827 4.66699 13.9993 4.66699ZM13.9993 18.667C12.716 18.667 11.666 19.717 11.666 21.0003C11.666 22.2837 12.716 23.3337 13.9993 23.3337C15.2827 23.3337 16.3327 22.2837 16.3327 21.0003C16.3327 19.717 15.2827 18.667 13.9993 18.667Z" fill="white"/>
</svg>
