<svg width="26" height="22" viewBox="0 0 26 22" fill="none" xmlns="http://www.w3.org/2000/svg">
<path d="M26 21C26 21.2652 25.8946 21.5196 25.7071 21.7071C25.5196 21.8946 25.2652 22 25 22H1C0.734784 22 0.48043 21.8946 0.292893 21.7071C0.105357 21.5196 0 21.2652 0 21C0 20.7348 0.105357 20.4804 0.292893 20.2929C0.48043 20.1054 0.734784 20 1 20H25C25.2652 20 25.5196 20.1054 25.7071 20.2929C25.8946 20.4804 26 20.7348 26 21ZM26 2V16C26 16.5304 25.7893 17.0391 25.4142 17.4142C25.0391 17.7893 24.5304 18 24 18H2C1.46957 18 0.960859 17.7893 0.585786 17.4142C0.210714 17.0391 0 16.5304 0 16V2C0 1.46957 0.210714 0.960859 0.585786 0.585786C0.960859 0.210714 1.46957 0 2 0H24C24.5304 0 25.0391 0.210714 25.4142 0.585786C25.7893 0.960859 26 1.46957 26 2ZM17.5 9C17.5 8.83932 17.4612 8.68102 17.387 8.5385C17.3128 8.39598 17.2053 8.27344 17.0737 8.18125L12.0737 4.68125C11.9239 4.57629 11.7482 4.51444 11.5656 4.50244C11.3831 4.49043 11.2008 4.52873 11.0385 4.61316C10.8762 4.69759 10.7402 4.82491 10.6452 4.98128C10.5503 5.13765 10.5001 5.31707 10.5 5.5V12.5C10.5001 12.6829 10.5503 12.8624 10.6452 13.0187C10.7402 13.1751 10.8762 13.3024 11.0385 13.3868C11.2008 13.4713 11.3831 13.5096 11.5656 13.4976C11.7482 13.4856 11.9239 13.4237 12.0737 13.3188L17.0737 9.81875C17.2053 9.72656 17.3128 9.60402 17.387 9.4615C17.4612 9.31898 17.5 9.16068 17.5 9Z" fill="white"/>
</svg>
