<svg width="28" height="28" viewBox="0 0 28 28" fill="none" xmlns="http://www.w3.org/2000/svg">
<path d="M25.6676 7.95469L25.6676 20.2667C25.6676 22.7882 22.9273 24.3706 20.7403 23.1099L15.4012 20.0351L10.0622 16.9474C7.87511 15.6867 7.87511 12.5347 10.0622 11.2739L15.4012 8.18627L20.7403 5.11149C22.9273 3.85071 25.6676 5.42026 25.6676 7.95469Z" fill="white"/>
<path d="M4.46489 23.0196C3.93741 23.0196 3.5 22.5822 3.5 22.0547L3.5 6.15336C3.5 5.62589 3.93742 5.18848 4.46489 5.18848C4.99236 5.18848 5.42977 5.62589 5.42977 6.15336L5.42977 22.0547C5.42977 22.5822 4.99236 23.0196 4.46489 23.0196Z" fill="white"/>
</svg>
