<svg width="28" height="28" viewBox="0 0 28 28" fill="none" xmlns="http://www.w3.org/2000/svg">
<path d="M4.52922 16.2339C4.91622 16.2339 5.22703 16.5482 5.25796 16.9339C5.37706 18.4196 5.87379 19.8545 6.70613 21.1002C7.66859 22.5407 9.03658 23.6633 10.6371 24.3263C12.2376 24.9892 13.9988 25.1627 15.6979 24.8247C17.397 24.4868 18.9577 23.6525 20.1827 22.4275C21.4077 21.2026 22.2419 19.6418 22.5799 17.9427C22.9178 16.2436 22.7444 14.4825 22.0814 12.882C21.4185 11.2814 20.2958 9.91345 18.8554 8.95099C17.4149 7.98852 15.7215 7.47481 13.9891 7.47481L11.1861 7.47481C10.7991 7.47481 10.4854 7.78854 10.4854 8.17554L10.4854 10.1627C10.4854 10.7869 9.73063 11.0996 9.2892 10.6581L5.72544 7.09439C5.45179 6.82074 5.45179 6.37706 5.72544 6.10341L9.2892 2.53965C9.73063 2.09822 10.4854 2.41086 10.4854 3.03514L10.4854 5.02226C10.4854 5.40926 10.7991 5.72299 11.1861 5.72299L13.9891 5.72299C16.0679 5.72299 18.1001 6.33944 19.8286 7.4944C21.5571 8.64936 22.9044 10.2909 23.6999 12.2116C24.4954 14.1322 24.7036 16.2456 24.298 18.2845C23.8925 20.3234 22.8914 22.1963 21.4214 23.6663C19.9514 25.1363 18.0786 26.1373 16.0396 26.5429C14.0007 26.9485 11.8873 26.7403 9.9667 25.9448C8.04608 25.1492 6.40449 23.802 5.24954 22.0735C4.22466 20.5396 3.62381 18.7667 3.50147 16.9342C3.47569 16.548 3.79185 16.2339 4.17885 16.2339L4.52922 16.2339Z" fill="white"/>
<path d="M17.1896 19.8515C16.8026 19.861 16.4187 19.78 16.0684 19.615C15.7574 19.4572 15.4898 19.2256 15.2889 18.9406C15.0686 18.608 14.914 18.2364 14.8334 17.8457C14.7299 17.3621 14.68 16.8686 14.6845 16.3742C14.6809 15.8797 14.7309 15.3863 14.8334 14.9026C14.9156 14.5124 15.0701 14.1411 15.2889 13.8077C15.4898 13.5227 15.7574 13.2911 16.0684 13.1333C16.4187 12.9683 16.8026 12.8873 17.1896 12.8968C17.5535 12.8691 17.9184 12.9351 18.2496 13.0884C18.5808 13.2417 18.8672 13.4773 19.0816 13.7727C19.5332 14.5495 19.7464 15.442 19.6947 16.3391C19.7464 17.2362 19.5332 18.1287 19.0816 18.9055C18.8754 19.2138 18.5925 19.4631 18.2608 19.629C17.9291 19.7949 17.5599 19.8716 17.1896 19.8515ZM17.1896 18.7829C17.3662 18.7935 17.5421 18.7538 17.6971 18.6686C17.8521 18.5833 17.9798 18.4559 18.0655 18.3012C18.2748 17.8915 18.3858 17.4386 18.3896 16.9785L18.3896 15.7698C18.4085 15.318 18.3215 14.8681 18.1356 14.4559C18.0377 14.3059 17.9039 14.1827 17.7464 14.0974C17.5888 14.0121 17.4125 13.9674 17.2334 13.9674C17.0542 13.9674 16.8779 14.0121 16.7204 14.0974C16.5629 14.1827 16.4291 14.3059 16.3312 14.4559C16.1452 14.8681 16.0582 15.318 16.0772 15.7698L16.0772 16.9785C16.0591 17.4331 16.146 17.8857 16.3312 18.3012C16.4147 18.4538 16.5395 18.58 16.6913 18.6652C16.8431 18.7503 17.0157 18.7911 17.1896 18.7829ZM9.30639 19.7377L9.30639 18.7041L11.0582 18.7041L11.0582 14.1581L9.42902 15.034L8.94727 14.1055L10.9794 12.9669L12.2582 12.9669L12.2582 18.6603L13.8173 18.6603L13.8173 19.7377L9.30639 19.7377Z" fill="white"/>
</svg>
