<svg width="28" height="28" viewBox="0 0 28 28" fill="none" xmlns="http://www.w3.org/2000/svg">
<path d="M23.4708 16.2339C23.0838 16.2339 22.773 16.5482 22.742 16.9339C22.6229 18.4196 22.1262 19.8545 21.2939 21.1002C20.3314 22.5407 18.9634 23.6633 17.3629 24.3263C15.7624 24.9892 14.0012 25.1627 12.3021 24.8247C10.603 24.4868 9.0423 23.6525 7.81731 22.4275C6.59233 21.2026 5.7581 19.6418 5.42013 17.9427C5.08216 16.2436 5.25562 14.4825 5.91857 12.882C6.58153 11.2814 7.70421 9.91345 9.14464 8.95099C10.5851 7.98852 12.2786 7.47481 14.0109 7.47481L16.8139 7.47481C17.2009 7.47481 17.5146 7.78854 17.5146 8.17554L17.5146 10.1627C17.5146 10.7869 18.2694 11.0996 18.7108 10.6581L22.2746 7.09439C22.5482 6.82074 22.5482 6.37706 22.2746 6.10341L18.7108 2.53965C18.2694 2.09822 17.5146 2.41086 17.5146 3.03514L17.5146 5.02226C17.5146 5.40926 17.2009 5.72299 16.8139 5.72299L14.0109 5.72299C11.9321 5.72299 9.89989 6.33944 8.17138 7.4944C6.44286 8.64936 5.09565 10.2909 4.3001 12.2116C3.50455 14.1322 3.2964 16.2456 3.70197 18.2845C4.10754 20.3234 5.1086 22.1963 6.57859 23.6663C8.04857 25.1363 9.92144 26.1373 11.9604 26.5429C13.9993 26.9485 16.1127 26.7403 18.0333 25.9448C19.9539 25.1492 21.5955 23.802 22.7505 22.0735C23.7753 20.5396 24.3762 18.7667 24.4985 16.9342C24.5243 16.548 24.2081 16.2339 23.8211 16.2339L23.4708 16.2339Z" fill="white"/>
<path d="M17.1896 19.8515C16.8026 19.861 16.4187 19.78 16.0684 19.615C15.7574 19.4572 15.4898 19.2256 15.2889 18.9406C15.0686 18.608 14.914 18.2364 14.8334 17.8457C14.7299 17.3621 14.68 16.8686 14.6845 16.3742C14.6809 15.8797 14.7309 15.3863 14.8334 14.9026C14.9156 14.5124 15.0701 14.1411 15.2889 13.8077C15.4898 13.5227 15.7574 13.2911 16.0684 13.1333C16.4187 12.9683 16.8026 12.8873 17.1896 12.8968C17.5535 12.8691 17.9184 12.9351 18.2496 13.0884C18.5808 13.2417 18.8672 13.4773 19.0816 13.7727C19.5332 14.5495 19.7464 15.442 19.6947 16.3391C19.7464 17.2362 19.5332 18.1287 19.0816 18.9055C18.8754 19.2138 18.5925 19.4631 18.2608 19.629C17.9291 19.7949 17.5599 19.8716 17.1896 19.8515ZM17.1896 18.7829C17.3662 18.7935 17.5421 18.7538 17.6971 18.6686C17.8521 18.5833 17.9798 18.4559 18.0655 18.3012C18.2748 17.8915 18.3858 17.4386 18.3896 16.9785L18.3896 15.7698C18.4085 15.318 18.3215 14.8681 18.1356 14.4559C18.0377 14.3059 17.9039 14.1827 17.7464 14.0974C17.5888 14.0121 17.4125 13.9674 17.2334 13.9674C17.0542 13.9674 16.8779 14.0121 16.7204 14.0974C16.5629 14.1827 16.4291 14.3059 16.3312 14.4559C16.1452 14.8681 16.0582 15.318 16.0772 15.7698L16.0772 16.9785C16.0591 17.4331 16.146 17.8857 16.3312 18.3012C16.4147 18.4538 16.5395 18.58 16.6913 18.6652C16.8431 18.7503 17.0157 18.7911 17.1896 18.7829ZM9.30639 19.7377L9.30639 18.7041L11.0582 18.7041L11.0582 14.1581L9.42902 15.034L8.94727 14.1055L10.9794 12.9669L12.2582 12.9669L12.2582 18.6603L13.8173 18.6603L13.8173 19.7377L9.30639 19.7377Z" fill="white"/>
</svg>
