<svg width="86" height="57" viewBox="0 0 86 57" fill="none" xmlns="http://www.w3.org/2000/svg">
<g clip-path="url(#clip0_3180_12804)">
<path d="M71.4625 52.0612C71.1805 52.0229 70.8921 52.0617 70.6359 52.1725C70.3797 52.2832 70.1682 52.4605 70.0298 52.6805C69.8914 52.9005 69.8327 53.1526 69.8617 53.4029C69.8908 53.6532 70.0061 53.8897 70.1922 54.0804C70.3782 54.2711 70.6261 54.407 70.9024 54.4697C71.1786 54.5323 71.4701 54.5188 71.7374 54.431C72.0047 54.3431 72.2351 54.1851 72.3975 53.9782C72.5598 53.7713 72.6464 53.5256 72.6455 53.274C72.6632 53.125 72.6461 52.9743 72.5954 52.8314C72.5447 52.6884 72.4614 52.5561 72.3506 52.4425C72.2398 52.329 72.1039 52.2366 71.9512 52.171C71.7985 52.1054 71.6322 52.0681 71.4625 52.0612Z" fill="white"/>
<path d="M78.9335 53.2036C78.8229 53.1914 78.7106 53.2001 78.6041 53.2291C78.4976 53.2581 78.3993 53.3067 78.3157 53.3718C78.2321 53.4369 78.1652 53.5169 78.1193 53.6065C78.0735 53.6961 78.0498 53.7933 78.0498 53.8916C78.0498 53.9899 78.0735 54.0871 78.1193 54.1767C78.1652 54.2663 78.2321 54.3463 78.3157 54.4114C78.3993 54.4765 78.4976 54.5251 78.6041 54.5541C78.7106 54.5831 78.8229 54.5918 78.9335 54.5796C79.1212 54.5873 79.3084 54.5559 79.4798 54.4879C79.6512 54.4198 79.802 54.3171 79.92 54.1881V53.5945C79.8019 53.4656 79.651 53.363 79.4797 53.2951C79.3083 53.2272 79.1212 53.1959 78.9335 53.2036Z" fill="white"/>
<path d="M64.0434 53.2036C63.9327 53.1914 63.8205 53.2001 63.7139 53.2291C63.6074 53.2581 63.5091 53.3067 63.4255 53.3718C63.342 53.4369 63.2751 53.5169 63.2292 53.6065C63.1834 53.6961 63.1597 53.7933 63.1597 53.8916C63.1597 53.9899 63.1834 54.0871 63.2292 54.1767C63.2751 54.2663 63.342 54.3463 63.4255 54.4114C63.5091 54.4765 63.6074 54.5251 63.7139 54.5541C63.8205 54.5831 63.9327 54.5918 64.0434 54.5796C64.2311 54.5873 64.4183 54.5559 64.5897 54.4879C64.7611 54.4198 64.9119 54.3171 65.0299 54.1881V53.5945C64.9118 53.4656 64.7609 53.363 64.5895 53.2951C64.4181 53.2272 64.231 53.1959 64.0434 53.2036Z" fill="white"/>
<path d="M54.4377 52.0294C54.1258 52.0347 53.8287 52.1476 53.6102 52.344C53.3917 52.5403 53.2692 52.8044 53.269 53.0795H55.6131C55.6177 52.9417 55.5905 52.8044 55.5332 52.6761C55.4759 52.5478 55.3898 52.431 55.2799 52.3329C55.17 52.2347 55.0388 52.1573 54.894 52.1051C54.7493 52.0529 54.594 52.0272 54.4377 52.0294Z" fill="white"/>
<path d="M24.3074 48.3588C22.7364 48.3588 21.2297 48.9092 20.1188 49.889C19.0079 50.8688 18.3838 52.1976 18.3838 53.5832V56.9965H79.775C81.3522 56.9965 82.8649 56.4439 83.9802 55.4602C85.0955 54.4766 85.7221 53.1425 85.7221 51.7514V48.3555L24.3074 48.3588ZM24.5882 54.9324C23.9115 54.9324 23.2626 54.6954 22.7842 54.2734C22.3057 53.8514 22.0369 53.2791 22.0369 52.6823C22.0369 52.0856 22.3057 51.5132 22.7842 51.0913C23.2626 50.6693 23.9115 50.4322 24.5882 50.4322C24.9567 50.4265 25.3209 50.5022 25.6477 50.6526C25.9744 50.8029 26.2533 51.0231 26.4587 51.2929L25.9412 51.5472C25.7896 51.3539 25.5876 51.1956 25.3521 51.0855C25.1167 50.9755 24.8546 50.9169 24.5882 50.9148C24.0757 50.9397 23.5935 51.1367 23.2407 51.4655C22.8879 51.7942 22.6913 52.2297 22.6913 52.6823C22.6913 53.135 22.8879 53.5704 23.2407 53.8992C23.5935 54.2279 24.0757 54.425 24.5882 54.4499C24.8549 54.449 25.1175 54.391 25.3532 54.2809C25.5889 54.1707 25.7907 54.0116 25.9412 53.8174L26.4663 54.0717C26.2586 54.3412 25.9782 54.5609 25.6504 54.7111C25.3226 54.8613 24.9576 54.9374 24.5882 54.9324ZM29.9411 54.8541H29.3864V52.7794C29.3864 52.2252 29.0608 52.0619 28.5805 52.0619C28.3743 52.0698 28.1727 52.1178 27.99 52.2024C27.8073 52.2869 27.6479 52.406 27.5234 52.5512V54.8528H26.9687V50.5025H27.5234V52.1589C27.6835 51.997 27.8798 51.8658 28.0999 51.7737C28.32 51.6816 28.5593 51.6305 28.8028 51.6235C28.9575 51.6038 29.1153 51.6161 29.2636 51.6596C29.4119 51.7031 29.5467 51.7765 29.6572 51.8739C29.7677 51.9714 29.8509 52.0903 29.9002 52.2211C29.9495 52.3519 29.9635 52.491 29.9411 52.6274V54.8541ZM33.7559 54.8541H33.2011V54.4111C33.0416 54.5708 32.8461 54.6996 32.6272 54.7894C32.4083 54.8791 32.1707 54.9278 31.9293 54.9324C31.7746 54.9522 31.6169 54.9398 31.4685 54.8963C31.3202 54.8529 31.1855 54.7795 31.0749 54.682C30.9644 54.5846 30.8812 54.4657 30.8319 54.3349C30.7826 54.2041 30.7686 54.0649 30.791 53.9285V51.7052H31.345V53.7799C31.345 54.3341 31.6629 54.4974 32.1441 54.4974C32.3496 54.4934 32.5515 54.4485 32.7347 54.3662C32.9178 54.2838 33.0776 54.166 33.2019 54.0215V51.7065H33.7566L33.7559 54.8541ZM36.3504 52.1415C36.2776 52.1274 36.2033 52.1207 36.1288 52.1215C35.9351 52.1363 35.7476 52.1891 35.58 52.2759C35.4124 52.3628 35.2688 52.4815 35.1597 52.6234V54.8541H34.6058V51.7045H35.1597V52.2132C35.2942 52.0427 35.4717 51.9021 35.6783 51.8025C35.885 51.703 36.1151 51.6472 36.3504 51.6396V52.1415ZM38.3909 54.4954C38.5695 54.4989 38.7461 54.4631 38.9051 54.3914C39.0641 54.3196 39.2003 54.2142 39.3016 54.0844L39.6711 54.385C39.5213 54.5646 39.3233 54.7086 39.0948 54.8042C38.8664 54.8997 38.6146 54.9438 38.3621 54.9324C37.881 54.9115 37.4274 54.7282 37.0952 54.4205C36.7631 54.1128 36.5779 53.7042 36.5779 53.2793C36.5779 52.8545 36.7631 52.4459 37.0952 52.1382C37.4274 51.8304 37.881 51.6471 38.3621 51.6262C38.6146 51.6148 38.8664 51.6588 39.0949 51.7544C39.3233 51.8499 39.5213 51.994 39.6711 52.1737L39.3016 52.4742C39.2012 52.3436 39.0652 52.2375 38.906 52.1657C38.7468 52.0939 38.5697 52.0586 38.3909 52.0632C38.0514 52.0962 37.7376 52.2386 37.5097 52.463C37.2817 52.6874 37.1557 52.978 37.1557 53.2793C37.1557 53.5806 37.2817 53.8713 37.5097 54.0957C37.7376 54.3201 38.0514 54.4624 38.3909 54.4954ZM43.1596 54.8541H42.6048V52.7794C42.6048 52.2252 42.2801 52.0619 41.7989 52.0619C41.5927 52.0698 41.3909 52.1177 41.208 52.2023C41.0252 52.2869 40.8658 52.406 40.7411 52.5512V54.8528H40.1864V50.5025H40.7411V52.1589C40.9013 51.997 41.0975 51.8659 41.3176 51.7738C41.5378 51.6817 41.777 51.6306 42.0205 51.6235C42.1752 51.6036 42.3331 51.6159 42.4815 51.6593C42.6299 51.7027 42.7647 51.7761 42.8753 51.8736C42.9858 51.9711 43.069 52.09 43.1182 52.2209C43.1675 52.3518 43.1814 52.491 43.1588 52.6274L43.1596 54.8541ZM46.2936 54.8541H45.6805V50.5038H46.2974L46.2936 54.8541ZM50.1311 54.8541H49.5764V52.7907C49.5764 52.2366 49.2585 52.0606 48.7773 52.0606C48.5708 52.067 48.3686 52.1142 48.1856 52.1989C48.0026 52.2836 47.8436 52.4035 47.7203 52.5498V54.8514H47.1655V51.7018H47.7203V52.1583C47.8795 51.9971 48.0745 51.8664 48.2932 51.7743C48.512 51.6822 48.7499 51.6306 48.9921 51.6229C49.1478 51.6046 49.3062 51.6185 49.4548 51.6634C49.6033 51.7083 49.7381 51.783 49.8484 51.8816C49.9587 51.9802 50.0416 52.1 50.0906 52.2316C50.1395 52.3632 50.1531 52.5031 50.1304 52.6402L50.1311 54.8541ZM51.8826 54.9324C51.7723 54.9415 51.6611 54.9283 51.5575 54.8939C51.4538 54.8596 51.3604 54.8048 51.2842 54.7339C51.208 54.663 51.1511 54.5778 51.1178 54.4846C51.0845 54.3915 51.0756 54.2928 51.0919 54.1962V52.1349H50.4999V51.7045H51.0919V50.8432H51.6458V51.7038H52.3682V52.1342H51.6435V54.0911C51.6435 54.3254 51.7619 54.4927 52.0063 54.4927C52.0761 54.494 52.1456 54.4832 52.2107 54.4608C52.2758 54.4384 52.3353 54.4049 52.3857 54.3622L52.5481 54.7276C52.458 54.7986 52.3526 54.8529 52.2383 54.8873C52.1241 54.9218 52.0031 54.9358 51.8826 54.9284M56.1633 53.4346H53.272C53.2751 53.581 53.3109 53.7254 53.3775 53.8595C53.4441 53.9936 53.5401 54.1148 53.66 54.2161C53.7799 54.3174 53.9213 54.3967 54.0762 54.4496C54.231 54.5025 54.3961 54.5278 54.5621 54.5242C54.9745 54.5252 55.3706 54.3823 55.6639 54.1266L55.9303 54.4465C55.7427 54.6071 55.5202 54.7327 55.2762 54.8156C55.0323 54.8985 54.7718 54.9371 54.5105 54.9291C54.0281 54.9159 53.5701 54.7394 53.2315 54.4362C52.8928 54.133 52.6996 53.7264 52.692 53.3009C52.6844 52.8753 52.8629 52.4636 53.1905 52.1511C53.5182 51.8386 53.9697 51.6494 54.4513 51.6229C54.6935 51.624 54.9328 51.6699 55.1537 51.7576C55.3746 51.8453 55.5722 51.9728 55.7339 52.132C55.8955 52.2911 56.0175 52.4783 56.0922 52.6816C56.1668 52.8848 56.1923 53.0996 56.1671 53.3121L56.1633 53.4346ZM58.5438 52.1375C58.471 52.1234 58.3967 52.1167 58.3222 52.1175C58.1286 52.1323 57.9412 52.185 57.7737 52.2719C57.6062 52.3587 57.4628 52.4775 57.3539 52.6194V54.8501H56.7992V51.7005H57.3539V52.2092C57.4883 52.0386 57.6659 51.8981 57.8725 51.7985C58.0792 51.699 58.3092 51.6432 58.5445 51.6356L58.5438 52.1375ZM61.945 54.8501H61.3902V52.7907C61.3902 52.2366 61.0715 52.0606 60.5912 52.0606C60.3845 52.0669 60.1821 52.1142 59.999 52.1989C59.8159 52.2835 59.6567 52.4035 59.5333 52.5498V54.8514H58.9794V51.7018H59.5333V52.1583C59.6925 51.9971 59.8875 51.8664 60.1063 51.7743C60.3251 51.6822 60.5629 51.6306 60.8052 51.6229C60.9609 51.6046 61.1192 51.6185 61.2678 51.6634C61.4164 51.7083 61.5512 51.783 61.6615 51.8816C61.7718 51.9802 61.8547 52.1 61.9036 52.2316C61.9525 52.3632 61.9662 52.5031 61.9434 52.6402L61.945 54.8501ZM65.5821 54.8501H65.0274V54.4914C64.8772 54.6347 64.6939 54.7479 64.4897 54.8233C64.2856 54.8987 64.0655 54.9345 63.8444 54.9284C63.6837 54.9356 63.5231 54.9139 63.3722 54.8647C63.2213 54.8156 63.0833 54.74 62.9664 54.6424C62.8496 54.5449 62.7564 54.4275 62.6925 54.2973C62.6286 54.1671 62.5953 54.0269 62.5945 53.885C62.5933 53.7429 62.6254 53.6022 62.6888 53.4716C62.7521 53.3409 62.8454 53.2233 62.9627 53.1259C63.0801 53.0286 63.219 52.9537 63.3707 52.9059C63.5224 52.8581 63.6837 52.8385 63.8444 52.8483C64.0654 52.8381 64.2862 52.8715 64.4909 52.9459C64.6955 53.0204 64.8788 53.134 65.0274 53.2786V52.7111C65.0274 52.2868 64.6427 52.0458 64.1251 52.0458C63.9176 52.0436 63.712 52.0816 63.523 52.1571C63.3339 52.2327 63.1659 52.3439 63.0309 52.4829L62.7721 52.1436C62.954 51.972 63.1754 51.8367 63.4215 51.7468C63.6676 51.6569 63.9326 51.6144 64.1987 51.6222C64.953 51.6222 65.5814 51.922 65.5814 52.685L65.5821 54.8501ZM67.3336 54.9284C67.2233 54.9375 67.1121 54.9243 67.0085 54.8899C66.9048 54.8555 66.8114 54.8008 66.7352 54.7299C66.659 54.659 66.6021 54.5737 66.5688 54.4806C66.5355 54.3874 66.5266 54.2888 66.5429 54.1922V52.1308H65.9509V51.7005H66.5429V50.8432H67.0968V51.7038H67.8215V52.1342H67.0968V54.0911C67.0968 54.3254 67.2152 54.4927 67.4595 54.4927C67.5294 54.494 67.5989 54.4832 67.664 54.4608C67.7291 54.4384 67.7886 54.4049 67.839 54.3622L68.0014 54.7276C67.9112 54.7986 67.8059 54.8529 67.6916 54.8873C67.5773 54.9218 67.4564 54.9358 67.3358 54.9284M69.0516 54.8501H68.4969V51.7005H69.0516V54.8501ZM68.7708 51.2501C68.673 51.2497 68.5792 51.2153 68.51 51.1542C68.4407 51.0932 68.4017 51.0105 68.4013 50.9241C68.4013 50.8368 68.4406 50.7531 68.5106 50.6913C68.5807 50.6296 68.6756 50.5949 68.7746 50.5949C68.8737 50.5949 68.9686 50.6296 69.0386 50.6913C69.1087 50.7531 69.148 50.8368 69.148 50.9241C69.1477 50.9676 69.1376 51.0106 69.1183 51.0506C69.099 51.0906 69.0709 51.1268 69.0356 51.1571C69.0003 51.1875 68.9585 51.2113 68.9127 51.2272C68.8668 51.2432 68.8178 51.251 68.7686 51.2501M71.4602 54.9311C71.085 54.9505 70.7119 54.8702 70.389 54.7005C70.0662 54.5308 69.8085 54.2795 69.6494 53.9792C69.4902 53.6789 69.437 53.3434 69.4964 53.0161C69.5559 52.6889 69.7254 52.3848 69.9829 52.1434C70.2405 51.902 70.5743 51.7344 70.9411 51.6622C71.3079 51.5899 71.6908 51.6164 72.0403 51.7383C72.3899 51.8602 72.6899 52.0717 72.9015 52.3456C73.1132 52.6195 73.2268 52.9432 73.2276 53.2746C73.2441 53.4877 73.2105 53.7014 73.129 53.9025C73.0475 54.1036 72.9198 54.2876 72.7539 54.4431C72.588 54.5986 72.3874 54.7222 72.1648 54.8062C71.9422 54.8902 71.7023 54.9327 71.4602 54.9311ZM76.8352 54.8528H76.2804V52.7907C76.2804 52.2366 75.9625 52.0606 75.4814 52.0606C75.2748 52.0669 75.0726 52.1142 74.8896 52.1989C74.7066 52.2836 74.5475 52.4035 74.4243 52.5498V54.8514H73.8696V51.7018H74.4243V52.1583C74.5834 51.997 74.7784 51.8662 74.9972 51.7741C75.216 51.682 75.4539 51.6306 75.6961 51.6229C75.8518 51.6046 76.0102 51.6185 76.1588 51.6634C76.3074 51.7083 76.4421 51.783 76.5524 51.8816C76.6628 51.9802 76.7457 52.1 76.7946 52.2316C76.8435 52.3632 76.8571 52.5031 76.8344 52.6402L76.8352 54.8528ZM80.4723 54.8528H79.9146V54.4941C79.7644 54.6374 79.5811 54.7506 79.3769 54.826C79.1728 54.9014 78.9527 54.9373 78.7315 54.9311C78.5709 54.9382 78.4103 54.9166 78.2594 54.8674C78.1085 54.8183 77.9704 54.7427 77.8536 54.6451C77.7368 54.5476 77.6436 54.4302 77.5797 54.3C77.5158 54.1698 77.4824 54.0296 77.4817 53.8877C77.4805 53.7456 77.5126 53.6049 77.5759 53.4742C77.6393 53.3436 77.7326 53.2259 77.8499 53.1286C77.9673 53.0313 78.1061 52.9564 78.2579 52.9086C78.4096 52.8608 78.5708 52.8412 78.7315 52.851C78.9526 52.8408 79.1734 52.8741 79.3781 52.9485C79.5827 53.023 79.766 53.1366 79.9146 53.2813V52.7138C79.9146 52.2895 79.5298 52.0485 79.0123 52.0485C78.8048 52.0463 78.5992 52.0842 78.4101 52.1598C78.221 52.2353 78.053 52.3465 77.918 52.4856L77.6593 52.1462C77.8413 51.9746 78.0629 51.8394 78.3091 51.7495C78.5552 51.6595 78.8204 51.6171 79.0867 51.6249C79.841 51.6249 80.4693 51.9247 80.4693 52.6877L80.4723 54.8528ZM81.877 54.8528H81.3223V50.5025H81.877V54.8528Z" fill="white"/>
<path d="M77.6431 6.31756C77.1475 4.46836 75.3324 3.54477 73.5862 2.72491C73.5596 2.71216 73.5296 2.70567 73.4993 2.70607C73.469 2.70647 73.4393 2.71374 73.4131 2.72718C73.3869 2.74063 73.365 2.75979 73.3496 2.78283C73.3342 2.80587 73.3258 2.83202 73.3252 2.85876C73.3396 3.41961 74.4225 3.76563 74.959 3.8446L75.1457 3.87271C75.4894 4.26966 75.896 4.62104 76.353 4.91611C76.0495 5.09748 75.7163 5.04528 75.9895 5.44818C76.1907 5.82571 76.4676 6.16808 76.8068 6.45878C77.0709 6.64216 77.8001 6.91389 77.6415 6.31756" fill="white"/>
<path d="M81.8477 14.7017C81.8253 14.6008 81.8114 14.4985 81.806 14.3958L81.7992 14.3878C81.5656 12.8944 81.1546 11.4269 80.5729 10.0094C80.4424 9.6888 78.4481 6.31165 78.228 6.59609C78.0679 6.59609 77.8486 6.88655 77.7575 6.96821C77.3895 7.30284 77.6885 7.94534 77.693 8.35293C77.6976 8.76052 77.4585 9.12327 77.4502 9.53286C77.4849 10.0444 77.5826 10.5512 77.7416 11.0441C77.9797 11.9696 78.4344 12.8411 79.0764 13.6027C79.2991 13.9564 79.5675 14.2861 79.8763 14.5852C80.2716 14.8837 80.8628 14.4928 81.2422 14.3536C81.2943 14.3537 81.346 14.3631 81.394 14.3811C81.501 14.5259 81.6398 14.6504 81.8022 14.7472C81.8637 14.7472 81.8584 14.7365 81.8531 14.701" fill="white"/>
<path d="M63.1587 0.255298C63.1078 0.523008 63.8727 0.339627 64.0981 0.535055C64.3652 0.766623 64.7052 0.645485 65.0247 0.735837C65.4132 0.877723 65.5786 1.1896 65.8799 1.42787C66.2658 1.70781 66.6984 1.93356 67.1624 2.09714C67.2565 2.13462 68.2824 2.3702 68.2574 2.23099C68.2195 2.01482 67.9592 1.82943 67.9387 1.5818C67.9508 1.39172 68.1041 1.23445 68.4699 1.12468C68.4403 1.13071 68.7932 1.15146 68.7324 1.11398C67.5959 0.426925 66.2516 0.0566727 64.8737 0.05117C64.4346 -0.0130524 63.9862 -0.00897517 63.5487 0.063217C63.4155 0.120721 63.2863 0.185082 63.1617 0.255968" fill="white"/>
<path d="M72.5004 16.8599C72.2727 16.8699 71.9942 16.8847 71.8629 16.6819C71.6178 16.3044 71.4835 16.3051 70.9591 16.2301C70.286 16.1324 70.3308 15.6452 69.9726 15.2162C69.7784 14.9819 69.5932 14.6238 69.3041 14.4706C68.9178 14.2698 68.4124 14.2591 68.0027 14.0737C67.5598 13.813 67.1343 13.5298 66.7285 13.2257C66.3984 13.033 66.0046 13.195 65.7117 13.0444C65.5887 12.9654 65.5022 12.5652 65.3565 12.6221C65.0469 12.9252 64.6159 12.697 64.238 12.7024C63.8472 12.7084 64.0005 12.8034 63.7068 12.6C62.7096 12.5946 62.0426 12.9346 61.9333 13.8649C61.4826 13.7036 59.4838 13.6768 59.4663 13.1742C59.439 12.361 60.5287 11.8805 59.0505 11.6275C58.9845 11.6161 58.4062 11.6054 58.5322 11.3705C58.6563 11.0608 58.8133 10.762 59.0011 10.4784C59.0823 10.4489 59.0489 10.1216 58.9412 10.1089C58.7197 10.1031 58.4999 10.1439 58.3 10.2281C57.5312 10.4897 57.0782 11.2989 56.1547 10.9154C55.9678 10.8289 55.8048 10.7073 55.677 10.5592C55.5493 10.411 55.46 10.24 55.4154 10.0581C55.3708 9.87615 55.3721 9.68783 55.419 9.50638C55.466 9.32494 55.5576 9.1548 55.6872 9.00798C56.2518 8.25571 57.3423 8.68271 58.1376 8.32331C58.4798 8.18853 58.8656 8.16712 59.2243 8.26301C59.5829 8.3589 59.8904 8.56566 60.0901 8.84534C60.2419 9.09632 60.3443 9.48718 60.7306 9.54808C61.1168 9.60898 60.9165 8.7657 60.8823 8.64389C60.7457 8.15064 60.6334 7.77785 61.2246 7.53892C61.5846 7.44098 61.9215 7.28608 62.2187 7.08181C62.4957 6.83618 62.3849 6.52363 62.5374 6.23183C62.6717 5.97416 63.042 5.94337 63.3205 5.90991C63.75 5.85771 63.7144 5.61275 63.914 5.36378C64.2251 5.28347 64.1712 5.12887 64.5438 5.12619C64.943 5.61208 65.9431 5.05458 65.9439 4.73734C65.9439 4.45223 64.2524 4.47432 64.5081 4.02323C64.5901 3.87867 65.2215 3.92618 65.3687 3.90677C65.5693 3.88752 65.7622 3.82782 65.9324 3.73231C66.1027 3.6368 66.2458 3.50803 66.3506 3.35596C66.4614 3.20471 64.949 2.39221 64.7995 2.29383C64.54 2.12383 64.4452 2.32461 64.1925 2.33867C63.8955 2.29507 63.6115 2.19901 63.3577 2.05623C62.7749 1.82667 62.1989 1.39566 62.1435 2.20347C62.1501 2.40966 62.1149 2.61523 62.0396 2.81051C61.947 2.99255 61.711 3.01932 61.6336 3.18329C61.3581 3.76154 61.2375 3.62635 60.6547 3.3138C60.3367 3.1438 59.2387 2.81653 59.1772 2.45981C59.1081 2.05824 60.3473 1.59644 60.6509 1.42377C60.7913 1.79254 61.0227 1.91836 61.3407 1.84407C61.4735 1.83939 61.6017 1.83805 61.6344 1.73364C60.8672 1.37424 61.5494 1.34881 61.7049 0.949256C61.3634 0.952273 61.0234 0.988863 60.6911 1.05835C60.4794 1.03626 60.493 0.608596 60.4263 0.589856C60.015 0.476749 59.7031 1.49003 59.3366 1.07441C59.1939 0.913115 59.7008 0.510213 59.5202 0.528952C59.505 0.528952 58.6855 0.580486 58.6035 0.572455C57.9031 0.510882 57.9388 1.16008 57.3628 1.10787C56.5823 0.950192 55.7698 0.965136 54.9974 1.15138C54.1422 1.46259 53.328 1.85545 52.5001 2.21217C51.8725 2.56154 52.9903 2.55618 52.7763 3.0153C52.4403 3.72661 52.0436 4.41437 51.5894 5.07265C50.4906 6.68827 51.2684 8.93168 52.3134 10.4195L52.4439 10.4864C52.4325 10.034 52.327 9.58738 52.1328 9.1686C52.3103 8.99861 53.3386 10.7695 53.6907 10.9669C54.1864 11.2908 54.7356 11.5454 55.3192 11.7219C55.5979 11.7804 55.8878 11.7843 56.1683 11.7333C56.5197 11.6703 56.9189 12.086 57.1549 12.2486C58.3941 13.1046 59.3859 14.2517 61.091 14.0282C61.9409 13.9171 61.4796 15.0495 61.261 15.3366C60.9438 15.7529 60.1326 16.2515 60.5894 16.793L60.616 16.8237C60.6539 16.8598 60.6759 16.9066 60.6779 16.9557C60.68 17.0049 60.6621 17.053 60.6274 17.0915C59.7964 18.1228 62.0176 19.9145 62.8865 20.4024C63.7554 20.8903 64.0763 21.0422 63.7971 22.0012C63.4989 23.0313 63.2553 24.0693 63.0223 25.112C62.8425 25.9152 63.0663 26.5884 62.7339 27.3996C62.6308 27.6676 62.614 27.9556 62.6854 28.2315C62.7568 28.5074 62.9136 28.7604 63.1384 28.9624C63.3129 29.0962 64.7654 29.477 64.9809 29.2301C65.1327 29.0534 64.1773 28.6344 64.4065 28.4269C64.6683 28.0347 64.8838 28.0254 64.8299 27.577C64.754 27.5335 64.5817 27.4264 64.6903 27.34C65.0059 27.1199 65.3732 26.9425 65.6768 26.7283C65.7527 26.6741 65.2723 26.5945 65.2412 26.5128C65.6945 26.2238 66.1855 25.9836 66.7035 25.7974C67.2764 25.6722 67.7446 25.5859 67.6748 25.009C67.6801 24.8845 67.756 24.9012 67.8524 24.9166C68.7213 25.0538 69.9385 23.8786 70.2982 23.2876C70.4407 22.9309 70.7145 22.6264 71.076 22.4229C71.5746 22.1967 72.2591 22.115 72.5816 21.6606C73.3078 20.6379 73.8974 19.5477 74.5273 18.4789C75.0805 17.5419 73.3351 16.8251 72.4989 16.8612" fill="white"/>
<path d="M23.2529 43.3597V38.541H15.9527V43.2132C15.9528 43.233 15.9485 43.2526 15.9399 43.2709C15.9314 43.2892 15.9188 43.3059 15.9029 43.3199C15.887 43.3339 15.8682 43.3449 15.8474 43.3525C15.8267 43.36 15.8044 43.3638 15.782 43.3638H14.9692V33.2129H15.9557V37.7465H23.2529V33.2129H24.2538V43.2092C24.2539 43.2291 24.2495 43.2489 24.2409 43.2674C24.2323 43.2859 24.2196 43.3027 24.2036 43.3168C24.1876 43.3309 24.1685 43.3421 24.1476 43.3497C24.1266 43.3573 24.1042 43.3612 24.0815 43.3611L23.2529 43.3597Z" fill="white"/>
<path d="M37.083 34.9043V43.3599H37.8904C37.937 43.3599 37.9817 43.3436 38.0147 43.3147C38.0476 43.2857 38.0663 43.2464 38.0665 43.2053V36.7803C38.0664 36.3602 37.919 35.9504 37.6446 35.607L37.083 34.9043Z" fill="white"/>
<path d="M3.63627 38.2935C3.60397 37.6056 3.73178 36.9192 4.01182 36.2765C4.29187 35.6339 4.7182 35.0486 5.26454 34.5569C5.81089 34.0651 6.46565 33.6773 7.18847 33.4173C7.91129 33.1572 8.68684 33.0306 9.4673 33.0451C10.2763 33.0354 11.0767 33.1927 11.8045 33.5044C12.5323 33.816 13.1674 34.2734 13.6592 34.8401C13.4418 34.9621 13.1853 35.0183 12.9285 35.0003C12.6716 34.9823 12.4284 34.8911 12.2356 34.7403C11.4653 34.1563 10.4831 33.8352 9.4673 33.8355C6.75895 33.8355 4.67135 35.6465 4.67135 38.2928C4.63493 38.8674 4.7321 39.4425 4.95688 39.9828C5.18165 40.523 5.5293 41.0171 5.97845 41.4345C6.42761 41.8519 6.96879 42.184 7.56875 42.4102C8.16871 42.6365 8.81479 42.7522 9.4673 42.7502C10.4869 42.7507 11.4726 42.4274 12.2439 41.8393C12.4353 41.6894 12.6763 41.5979 12.9312 41.5784C13.1862 41.5589 13.4414 41.6123 13.6592 41.7309C13.1709 42.3019 12.5369 42.7634 11.8086 43.078C11.0803 43.3925 10.2782 43.5512 9.4673 43.5413C8.68677 43.5558 7.91116 43.4291 7.18829 43.169C6.46542 42.909 5.81061 42.5211 5.26426 42.0292C4.7179 41.5374 4.29158 40.9521 4.01159 40.3093C3.7316 39.6666 3.60387 38.9801 3.63627 38.2922" fill="white"/>
<path d="M34.7661 43.2681L33.6696 40.8654H27.5805L26.484 43.2681C26.4717 43.2948 26.4508 43.3179 26.4238 43.3343C26.3968 43.3507 26.365 43.3598 26.3322 43.3604H25.3032L29.9694 33.3059C29.9821 33.2784 30.0038 33.2548 30.0318 33.2382C30.0598 33.2217 30.0928 33.2128 30.1265 33.2129H31.1244C31.1577 33.2128 31.1903 33.2215 31.218 33.2378C31.2457 33.2542 31.2673 33.2774 31.28 33.3046L35.9469 43.3591H34.9232C34.8904 43.3585 34.8585 43.3495 34.8315 43.3331C34.8046 43.3166 34.7836 43.2936 34.7714 43.2667M30.622 34.1392L27.9144 40.0723H33.3478L30.622 34.1392Z" fill="white"/>
<path d="M59.7466 43.2105V33.3682C59.7466 33.327 59.7651 33.2875 59.7981 33.2584C59.8312 33.2293 59.8759 33.2129 59.9226 33.2129H67.043V34.004H60.7293V37.7619H66.9223V38.553H60.7293V42.5687H67.043V43.3591H59.9166C59.8715 43.3591 59.8283 43.3433 59.7964 43.3152C59.7645 43.2871 59.7466 43.2489 59.7466 43.2092" fill="white"/>
<path d="M75.5083 43.244L72.372 39.1614H69.8359V43.2105C69.8359 43.2302 69.8315 43.2498 69.8229 43.268C69.8143 43.2862 69.8017 43.3028 69.7859 43.3167C69.77 43.3307 69.7512 43.3417 69.7304 43.3492C69.7097 43.3567 69.6876 43.3605 69.6652 43.3604H68.8555V33.3635C68.8555 33.3436 68.8599 33.324 68.8685 33.3057C68.8772 33.2874 68.8898 33.2707 68.9057 33.2568C68.9217 33.2428 68.9406 33.2317 68.9614 33.2242C68.9822 33.2166 69.0045 33.2128 69.027 33.2129H73.1513C73.6081 33.1832 74.0668 33.2386 74.4977 33.3755C74.9286 33.5124 75.3219 33.7278 75.6522 34.0077C75.9825 34.2875 76.2422 34.6256 76.4146 34.9998C76.587 35.374 76.6681 35.7761 76.6527 36.1798C76.6719 36.5586 76.6036 36.9369 76.4519 37.2917C76.3001 37.6465 76.0681 37.9703 75.77 38.2435C75.4718 38.5167 75.1138 38.7336 74.7176 38.8809C74.3215 39.0282 73.8954 39.103 73.4655 39.1005L76.7885 43.3597H75.761C75.7118 43.3596 75.6634 43.349 75.6199 43.3287C75.5764 43.3084 75.5392 43.2791 75.5114 43.2433M75.6184 36.1791C75.6289 35.8843 75.5694 35.5908 75.4437 35.3175C75.3179 35.0442 75.1287 34.7971 74.8882 34.5922C74.6477 34.3873 74.3612 34.229 74.0472 34.1276C73.7331 34.0261 73.3985 33.9838 73.0648 34.0033H69.8389V38.3696H73.0648C73.3995 38.3875 73.7347 38.3435 74.049 38.2406C74.3634 38.1377 74.6498 37.978 74.8902 37.7718C75.1305 37.5656 75.3195 37.3175 75.4448 37.0432C75.5702 36.769 75.6293 36.4747 75.6184 36.1791Z" fill="white"/>
<path d="M77.7037 41.9285C77.8605 41.7676 78.0824 41.6669 78.3221 41.6481C78.5617 41.6292 78.8003 41.6935 78.9869 41.8275C79.816 42.4276 80.8564 42.754 81.929 42.7504C84.2928 42.7504 84.9644 41.5939 84.9644 40.7272C84.9644 37.7456 78.0642 39.2969 78.0642 35.7525C78.0642 34.094 79.7549 33.0439 81.8417 33.0439C82.5711 33.0136 83.299 33.1261 83.9731 33.3734C84.6473 33.6206 85.2509 33.9966 85.7407 34.4741C85.5778 34.6308 85.354 34.7276 85.1137 34.7452C84.8735 34.7629 84.6346 34.7 84.4446 34.5692C83.6764 34.0708 82.742 33.8118 81.7886 33.833C80.2535 33.833 79.0977 34.6087 79.0977 35.707C79.0977 38.3084 85.998 36.8788 85.998 40.6669C85.998 41.9754 85.0115 43.5448 81.9093 43.5448C81.1155 43.572 80.325 43.4412 79.5965 43.1621C78.8679 42.8829 78.2199 42.4627 77.7007 41.9325" fill="white"/>
<path d="M37.1777 30.8644V20.8701H37.9905C38.0357 20.8701 38.0792 20.886 38.1112 20.9142C38.1432 20.9425 38.1612 20.9808 38.1612 21.0207V30.2266H42.8388C43.0767 30.2266 43.3048 30.3099 43.473 30.4583C43.6412 30.6066 43.7357 30.8078 43.7357 31.0176H37.3523C37.306 31.0176 37.2616 31.0014 37.2289 30.9726C37.1961 30.9437 37.1777 30.9052 37.1777 30.8644Z" fill="white"/>
<path d="M45.1812 30.8657V21.0214C45.1811 21.0015 45.1854 20.9818 45.194 20.9634C45.2026 20.945 45.2152 20.9283 45.2312 20.9142C45.2471 20.9002 45.2661 20.889 45.2869 20.8815C45.3078 20.8739 45.3301 20.87 45.3527 20.8701H48.8555C50.3813 20.8701 51.8445 21.4047 52.9234 22.3562C54.0023 23.3077 54.6084 24.5982 54.6084 25.9439C54.6084 27.2895 54.0023 28.5801 52.9234 29.5316C51.8445 30.4831 50.3813 31.0176 48.8555 31.0176H45.3534C45.3308 31.0176 45.3085 31.0137 45.2876 31.0061C45.2668 30.9984 45.2478 30.9872 45.2319 30.9731C45.2159 30.959 45.2033 30.9422 45.1947 30.9238C45.1862 30.9054 45.1811 30.8856 45.1812 30.8657ZM53.634 25.9512C53.634 23.578 51.9084 21.6612 48.8532 21.6612H46.1623V30.2279H48.8532C49.495 30.2551 50.136 30.1627 50.7345 29.9567C51.333 29.7507 51.8755 29.4357 52.3266 29.0323C52.7778 28.6288 53.1274 28.146 53.3527 27.6154C53.5779 27.0847 53.6738 26.5181 53.634 25.9526" fill="white"/>
<path d="M20.4723 31.1672C19.3016 31.1672 18.1572 30.8611 17.1838 30.2874C16.2104 29.7138 15.4518 28.8985 15.0038 27.9446C14.5558 26.9907 14.4386 25.9411 14.667 24.9285C14.8953 23.9158 15.4591 22.9856 16.2869 22.2556C17.1147 21.5255 18.1693 21.0283 19.3175 20.8269C20.4657 20.6254 21.6558 20.7288 22.7374 21.1239C23.819 21.5191 24.7434 22.1882 25.3938 23.0466C26.0442 23.9051 26.3913 24.9144 26.3913 25.9469C26.3895 27.3309 25.7653 28.6578 24.6557 29.6365C23.546 30.6151 22.0415 31.1656 20.4723 31.1672ZM20.4723 21.6301C19.5042 21.6301 18.5579 21.8833 17.753 22.3576C16.9481 22.8319 16.3207 23.5061 15.9503 24.2949C15.5798 25.0837 15.4829 25.9517 15.6717 26.7891C15.8606 27.6264 16.3267 28.3956 17.0113 28.9993C17.6958 29.6031 18.5679 30.0142 19.5174 30.1808C20.4668 30.3473 21.451 30.2618 22.3454 29.9351C23.2397 29.6084 24.0042 29.0551 24.542 28.3452C25.0798 27.6353 25.3669 26.8007 25.3669 25.9469C25.3655 24.8024 24.8493 23.7051 23.9317 22.8958C23.0141 22.0865 21.77 21.6313 20.4723 21.6301Z" fill="white"/>
<path d="M45.2937 33.2126V40.2948L45.3043 42.1574L32.2278 26.7568C32.658 26.7596 33.0844 26.6852 33.4809 26.538C33.8775 26.3909 34.236 26.1741 34.5345 25.9008C34.833 25.6276 35.0654 25.3036 35.2174 24.9487C35.3694 24.5937 35.4379 24.2151 35.4187 23.8361C35.4342 23.4323 35.353 23.0302 35.1806 22.6559C35.0082 22.2817 34.7483 21.9436 34.418 21.6637C34.0876 21.3839 33.6942 21.1685 33.2632 21.0316C32.8323 20.8947 32.3735 20.8394 31.9166 20.8692H27.623V31.0167H28.4297C28.4763 31.0165 28.521 31.0001 28.554 30.971C28.587 30.9419 28.6056 30.9026 28.6058 30.8614V26.8177H31.1411L45.0865 43.3621H46.1026C46.1255 43.3621 46.1482 43.3581 46.1694 43.3504C46.1906 43.3427 46.2098 43.3313 46.226 43.317C46.2423 43.3027 46.2551 43.2858 46.2639 43.2671C46.2726 43.2484 46.2772 43.2284 46.2772 43.2082V33.3699C46.2772 33.3287 46.2586 33.2892 46.2256 33.2601C46.1926 33.231 46.1478 33.2146 46.1011 33.2146L45.2937 33.2126ZM28.6058 26.0279V21.6603H31.8316C32.164 21.65 32.4953 21.6989 32.8058 21.804C33.1163 21.909 33.3996 22.0682 33.6388 22.272C33.8781 22.4757 34.0684 22.7198 34.1983 22.9898C34.3283 23.2598 34.3952 23.5501 34.3952 23.8434C34.3952 24.1367 34.3283 24.427 34.1983 24.697C34.0684 24.967 33.8781 25.2112 33.6388 25.4149C33.3996 25.6187 33.1163 25.7778 32.8058 25.8829C32.4953 25.988 32.164 26.0369 31.8316 26.0266L28.6058 26.0279Z" fill="white"/>
<path d="M13.0976 20.9813L10.3551 29.8003L7.54354 21.5435H6.78013C6.74158 21.5435 6.70407 21.5545 6.67337 21.5751C6.64266 21.5957 6.62045 21.6245 6.61015 21.6573L3.81681 29.8003L1.04017 20.8696H0.170525C0.143954 20.8695 0.117722 20.8748 0.0939166 20.8852C0.0701112 20.8956 0.0493892 20.9108 0.0333994 20.9295C0.0174096 20.9482 0.0065934 20.97 0.00181135 20.993C-0.00297069 21.0161 -0.00158656 21.0398 0.00585361 21.0623L3.23098 31.0171H4.20155C4.23997 31.017 4.2773 31.0058 4.30786 30.9853C4.33841 30.9648 4.36051 30.936 4.37077 30.9033L7.09505 22.9711L9.855 31.0164H10.8278C10.8655 31.0164 10.9021 31.0055 10.9321 30.9854C10.962 30.9654 10.9838 30.9372 10.994 30.9053L14.2359 20.8662H13.2638C13.226 20.8662 13.1893 20.8771 13.1593 20.8973C13.1292 20.9175 13.1076 20.9459 13.0976 20.978" fill="white"/>
<path d="M52.6717 39.1012H57.0192V41.4764C56.3466 42.018 55.5161 42.3833 54.621 42.5314C53.7259 42.6795 52.8017 42.6044 51.9524 42.3146C51.103 42.0248 50.3621 41.5318 49.8131 40.891C49.264 40.2502 48.9285 39.487 48.8442 38.6873C48.76 37.8875 48.9304 37.0829 49.3362 36.3639C49.7421 35.6448 50.3673 35.0399 51.1416 34.6171C51.9159 34.1943 52.8086 33.9703 53.7193 33.9704C54.63 33.9705 55.5226 34.1947 56.2968 34.6177C56.5199 34.7469 57.3835 35.1893 58.0019 34.6847C57.1856 33.9302 56.1317 33.4087 54.9762 33.1873C53.8207 32.966 52.6165 33.0549 51.5188 33.4427C50.4211 33.8305 49.4803 34.4994 48.8176 35.3631C48.155 36.2268 47.8008 37.2458 47.8008 38.2887C47.8008 39.3316 48.155 40.3506 48.8176 41.2143C49.4803 42.078 50.4211 42.7469 51.5188 43.1347C52.6165 43.5225 53.8207 43.6114 54.9762 43.3901C56.1317 43.1687 57.1856 42.6472 58.0019 41.8927V38.3268H53.5513C53.318 38.3268 53.0943 38.4086 52.9293 38.554C52.7644 38.6995 52.6717 38.8968 52.6717 39.1025" fill="white"/>
</g>
<defs>
<clipPath id="clip0_3180_12804">
<rect width="86" height="57" fill="white"/>
</clipPath>
</defs>
</svg>
